<mxfile host="Electron" modified="2025-02-25T15:54:36.387Z" agent="Mozilla/5.0 (Macintosh; Intel Mac OS X 10_15_7) AppleWebKit/537.36 (KHTML, like Gecko) draw.io/24.4.13 Chrome/124.0.6367.207 Electron/30.0.6 Safari/537.36" etag="CDf5pU1wLmAaUUtauthQ" version="24.4.13" type="device">
  <diagram id="obiKMJ8CqMo3xRCFQMb5" name="Page-1">
    <mxGraphModel dx="3379" dy="1471" grid="1" gridSize="10" guides="1" tooltips="1" connect="1" arrows="1" fold="1" page="1" pageScale="1" pageWidth="850" pageHeight="1100" math="0" shadow="0">
      <root>
        <mxCell id="0" />
        <mxCell id="1" parent="0" />
        <mxCell id="S2yTtaICxEiza2klLoan-1" value="saref:Property" style="rounded=0;whiteSpace=wrap;html=1;points=[[0.1,0],[0.2,0],[0.3,0],[0.4,0],[0.5,0],[0.6,0],[0.7,0],[0.8,0],[0.9,0],[0,0.1],[0,0.3],[0,0.5],[0,0.7],[0,0.9],[0.1,1],[0.2,1],[0.3,1],[0.4,1],[0.5,1],[0.6,1],[0.7,1],[0.8,1],[0.9,1],[1,0.1],[1,0.3],[1,0.5],[1,0.7],[1,0.9]];" parent="1" vertex="1">
          <mxGeometry x="280" y="10" width="94" height="30" as="geometry" />
        </mxCell>
        <mxCell id="S2yTtaICxEiza2klLoan-3" value="adapters:SpaceProperty" style="rounded=0;whiteSpace=wrap;html=1;fillColor=#d5e8d4;strokeColor=#82b366;" parent="1" vertex="1">
          <mxGeometry x="480" y="80" width="147" height="30" as="geometry" />
        </mxCell>
        <mxCell id="S2yTtaICxEiza2klLoan-4" value="adapters:HealthProperty" style="rounded=0;whiteSpace=wrap;html=1;fillColor=#d5e8d4;strokeColor=#82b366;" parent="1" vertex="1">
          <mxGeometry x="-123.75" y="80" width="180" height="30" as="geometry" />
        </mxCell>
        <mxCell id="S2yTtaICxEiza2klLoan-5" value="adapters:TRAFXProperty" style="rounded=0;whiteSpace=wrap;html=1;fillColor=#d5e8d4;strokeColor=#82b366;" parent="1" vertex="1">
          <mxGeometry x="-527.13" y="562.25" width="180" height="30" as="geometry" />
        </mxCell>
        <mxCell id="S2yTtaICxEiza2klLoan-6" value="adapters:StatusProperty" style="rounded=0;whiteSpace=wrap;html=1;fillColor=#D5E8D4;strokeColor=#82b366;" parent="1" vertex="1">
          <mxGeometry x="-70" y="499.38" width="230" height="30" as="geometry" />
        </mxCell>
        <mxCell id="S2yTtaICxEiza2klLoan-7" value="adapters:EnergyProperty" style="rounded=0;whiteSpace=wrap;html=1;fillColor=#d5e8d4;strokeColor=#82b366;" parent="1" vertex="1">
          <mxGeometry x="260" y="80" width="152" height="30" as="geometry" />
        </mxCell>
        <mxCell id="S2yTtaICxEiza2klLoan-33" value="" style="endArrow=open;html=1;fontColor=#000099;endFill=0;dashed=1;endSize=8;edgeStyle=orthogonalEdgeStyle;arcSize=0;" parent="1" source="S2yTtaICxEiza2klLoan-34" target="S2yTtaICxEiza2klLoan-3" edge="1">
          <mxGeometry width="50" height="50" relative="1" as="geometry">
            <mxPoint x="301.44" y="129.6300000000001" as="sourcePoint" />
            <mxPoint x="608" y="137" as="targetPoint" />
            <Array as="points">
              <mxPoint x="510" y="172" />
              <mxPoint x="510" y="130" />
              <mxPoint x="554" y="130" />
            </Array>
          </mxGeometry>
        </mxCell>
        <mxCell id="S2yTtaICxEiza2klLoan-34" value="&lt;u&gt;adapters:GPSLatitude&lt;/u&gt;" style="rounded=0;whiteSpace=wrap;html=1;snapToPoint=1;points=[[0.1,0],[0.2,0],[0.3,0],[0.4,0],[0.5,0],[0.6,0],[0.7,0],[0.8,0],[0.9,0],[0,0.1],[0,0.3],[0,0.5],[0,0.7],[0,0.9],[0.1,1],[0.2,1],[0.3,1],[0.4,1],[0.5,1],[0.6,1],[0.7,1],[0.8,1],[0.9,1],[1,0.1],[1,0.3],[1,0.5],[1,0.7],[1,0.9]];" parent="1" vertex="1">
          <mxGeometry x="529.5" y="160" width="150" height="23" as="geometry" />
        </mxCell>
        <mxCell id="S2yTtaICxEiza2klLoan-35" value="&lt;u&gt;adapters:GPSLongitude&lt;/u&gt;" style="rounded=0;whiteSpace=wrap;html=1;snapToPoint=1;points=[[0.1,0],[0.2,0],[0.3,0],[0.4,0],[0.5,0],[0.6,0],[0.7,0],[0.8,0],[0.9,0],[0,0.1],[0,0.3],[0,0.5],[0,0.7],[0,0.9],[0.1,1],[0.2,1],[0.3,1],[0.4,1],[0.5,1],[0.6,1],[0.7,1],[0.8,1],[0.9,1],[1,0.1],[1,0.3],[1,0.5],[1,0.7],[1,0.9]];" parent="1" vertex="1">
          <mxGeometry x="529.5" y="195.5" width="150" height="23" as="geometry" />
        </mxCell>
        <mxCell id="S2yTtaICxEiza2klLoan-36" value="" style="endArrow=open;html=1;fontColor=#000099;endFill=0;dashed=1;endSize=8;edgeStyle=orthogonalEdgeStyle;arcSize=0;" parent="1" source="S2yTtaICxEiza2klLoan-35" target="S2yTtaICxEiza2klLoan-3" edge="1">
          <mxGeometry width="50" height="50" relative="1" as="geometry">
            <mxPoint x="589" y="168.1300000000001" as="sourcePoint" />
            <mxPoint x="608" y="137" as="targetPoint" />
            <Array as="points">
              <mxPoint x="510" y="197" />
              <mxPoint x="510" y="130" />
              <mxPoint x="554" y="130" />
            </Array>
          </mxGeometry>
        </mxCell>
        <mxCell id="S2yTtaICxEiza2klLoan-37" value="&lt;u&gt;adapters:GPSAltitud&lt;/u&gt;" style="rounded=0;whiteSpace=wrap;html=1;snapToPoint=1;points=[[0.1,0],[0.2,0],[0.3,0],[0.4,0],[0.5,0],[0.6,0],[0.7,0],[0.8,0],[0.9,0],[0,0.1],[0,0.3],[0,0.5],[0,0.7],[0,0.9],[0.1,1],[0.2,1],[0.3,1],[0.4,1],[0.5,1],[0.6,1],[0.7,1],[0.8,1],[0.9,1],[1,0.1],[1,0.3],[1,0.5],[1,0.7],[1,0.9]];" parent="1" vertex="1">
          <mxGeometry x="529.5" y="231.5" width="150" height="23" as="geometry" />
        </mxCell>
        <mxCell id="S2yTtaICxEiza2klLoan-38" value="&lt;u&gt;adapters:BeaconMac&lt;/u&gt;" style="rounded=0;whiteSpace=wrap;html=1;snapToPoint=1;points=[[0.1,0],[0.2,0],[0.3,0],[0.4,0],[0.5,0],[0.6,0],[0.7,0],[0.8,0],[0.9,0],[0,0.1],[0,0.3],[0,0.5],[0,0.7],[0,0.9],[0.1,1],[0.2,1],[0.3,1],[0.4,1],[0.5,1],[0.6,1],[0.7,1],[0.8,1],[0.9,1],[1,0.1],[1,0.3],[1,0.5],[1,0.7],[1,0.9]];" parent="1" vertex="1">
          <mxGeometry x="529.5" y="267" width="150" height="23" as="geometry" />
        </mxCell>
        <mxCell id="S2yTtaICxEiza2klLoan-39" value="&lt;u&gt;adapters:XAxisAcceleration&lt;/u&gt;" style="rounded=0;whiteSpace=wrap;html=1;snapToPoint=1;points=[[0.1,0],[0.2,0],[0.3,0],[0.4,0],[0.5,0],[0.6,0],[0.7,0],[0.8,0],[0.9,0],[0,0.1],[0,0.3],[0,0.5],[0,0.7],[0,0.9],[0.1,1],[0.2,1],[0.3,1],[0.4,1],[0.5,1],[0.6,1],[0.7,1],[0.8,1],[0.9,1],[1,0.1],[1,0.3],[1,0.5],[1,0.7],[1,0.9]];" parent="1" vertex="1">
          <mxGeometry x="529.5" y="297.25" width="150" height="23" as="geometry" />
        </mxCell>
        <mxCell id="S2yTtaICxEiza2klLoan-40" value="&lt;u&gt;adapters:YAxisAcceleration&lt;/u&gt;" style="rounded=0;whiteSpace=wrap;html=1;snapToPoint=1;points=[[0.1,0],[0.2,0],[0.3,0],[0.4,0],[0.5,0],[0.6,0],[0.7,0],[0.8,0],[0.9,0],[0,0.1],[0,0.3],[0,0.5],[0,0.7],[0,0.9],[0.1,1],[0.2,1],[0.3,1],[0.4,1],[0.5,1],[0.6,1],[0.7,1],[0.8,1],[0.9,1],[1,0.1],[1,0.3],[1,0.5],[1,0.7],[1,0.9]];" parent="1" vertex="1">
          <mxGeometry x="529.5" y="333.5" width="150" height="23" as="geometry" />
        </mxCell>
        <mxCell id="S2yTtaICxEiza2klLoan-41" value="&lt;u&gt;adapters:ZAxisAcceleration&lt;/u&gt;" style="rounded=0;whiteSpace=wrap;html=1;snapToPoint=1;points=[[0.1,0],[0.2,0],[0.3,0],[0.4,0],[0.5,0],[0.6,0],[0.7,0],[0.8,0],[0.9,0],[0,0.1],[0,0.3],[0,0.5],[0,0.7],[0,0.9],[0.1,1],[0.2,1],[0.3,1],[0.4,1],[0.5,1],[0.6,1],[0.7,1],[0.8,1],[0.9,1],[1,0.1],[1,0.3],[1,0.5],[1,0.7],[1,0.9]];" parent="1" vertex="1">
          <mxGeometry x="530" y="363.5" width="150" height="23" as="geometry" />
        </mxCell>
        <mxCell id="S2yTtaICxEiza2klLoan-42" value="" style="endArrow=open;html=1;fontColor=#000099;endFill=0;dashed=1;endSize=8;exitX=0;exitY=0.3;exitDx=0;exitDy=0;edgeStyle=orthogonalEdgeStyle;arcSize=0;" parent="1" source="S2yTtaICxEiza2klLoan-37" target="S2yTtaICxEiza2klLoan-3" edge="1">
          <mxGeometry width="50" height="50" relative="1" as="geometry">
            <mxPoint x="590" y="206.5" as="sourcePoint" />
            <mxPoint x="608" y="137" as="targetPoint" />
            <Array as="points">
              <mxPoint x="530" y="233" />
              <mxPoint x="510" y="233" />
              <mxPoint x="510" y="130" />
              <mxPoint x="554" y="130" />
            </Array>
          </mxGeometry>
        </mxCell>
        <mxCell id="S2yTtaICxEiza2klLoan-43" value="" style="endArrow=open;html=1;fontColor=#000099;endFill=0;dashed=1;endSize=8;edgeStyle=orthogonalEdgeStyle;arcSize=0;" parent="1" source="S2yTtaICxEiza2klLoan-38" target="S2yTtaICxEiza2klLoan-3" edge="1">
          <mxGeometry width="50" height="50" relative="1" as="geometry">
            <mxPoint x="600" y="216.5" as="sourcePoint" />
            <mxPoint x="608" y="137" as="targetPoint" />
            <Array as="points">
              <mxPoint x="510" y="268" />
              <mxPoint x="510" y="130" />
              <mxPoint x="554" y="130" />
            </Array>
          </mxGeometry>
        </mxCell>
        <mxCell id="S2yTtaICxEiza2klLoan-44" value="" style="endArrow=open;html=1;fontColor=#000099;endFill=0;dashed=1;endSize=8;edgeStyle=orthogonalEdgeStyle;arcSize=0;" parent="1" source="S2yTtaICxEiza2klLoan-39" target="S2yTtaICxEiza2klLoan-3" edge="1">
          <mxGeometry width="50" height="50" relative="1" as="geometry">
            <mxPoint x="610" y="226.5" as="sourcePoint" />
            <mxPoint x="608" y="137" as="targetPoint" />
            <Array as="points">
              <mxPoint x="510" y="298" />
              <mxPoint x="510" y="130" />
              <mxPoint x="554" y="130" />
            </Array>
          </mxGeometry>
        </mxCell>
        <mxCell id="S2yTtaICxEiza2klLoan-45" value="" style="endArrow=open;html=1;fontColor=#000099;endFill=0;dashed=1;endSize=8;edgeStyle=orthogonalEdgeStyle;arcSize=0;" parent="1" source="S2yTtaICxEiza2klLoan-40" target="S2yTtaICxEiza2klLoan-3" edge="1">
          <mxGeometry width="50" height="50" relative="1" as="geometry">
            <mxPoint x="620" y="236.5" as="sourcePoint" />
            <mxPoint x="608" y="137" as="targetPoint" />
            <Array as="points">
              <mxPoint x="510" y="335" />
              <mxPoint x="510" y="130" />
              <mxPoint x="554" y="130" />
            </Array>
          </mxGeometry>
        </mxCell>
        <mxCell id="S2yTtaICxEiza2klLoan-46" value="" style="endArrow=open;html=1;fontColor=#000099;endFill=0;dashed=1;endSize=8;edgeStyle=orthogonalEdgeStyle;arcSize=0;" parent="1" source="S2yTtaICxEiza2klLoan-48" target="S2yTtaICxEiza2klLoan-3" edge="1">
          <mxGeometry width="50" height="50" relative="1" as="geometry">
            <mxPoint x="630" y="246.5" as="sourcePoint" />
            <mxPoint x="608" y="137" as="targetPoint" />
            <Array as="points">
              <mxPoint x="510" y="400" />
              <mxPoint x="510" y="130" />
              <mxPoint x="554" y="130" />
            </Array>
          </mxGeometry>
        </mxCell>
        <mxCell id="S2yTtaICxEiza2klLoan-47" value="" style="endArrow=open;html=1;fontColor=#000099;endFill=0;dashed=1;endSize=8;edgeStyle=orthogonalEdgeStyle;arcSize=0;" parent="1" source="S2yTtaICxEiza2klLoan-41" target="S2yTtaICxEiza2klLoan-3" edge="1">
          <mxGeometry width="50" height="50" relative="1" as="geometry">
            <mxPoint x="640" y="256.5" as="sourcePoint" />
            <mxPoint x="608" y="137" as="targetPoint" />
            <Array as="points">
              <mxPoint x="510" y="365" />
              <mxPoint x="510" y="130" />
              <mxPoint x="554" y="130" />
            </Array>
          </mxGeometry>
        </mxCell>
        <mxCell id="S2yTtaICxEiza2klLoan-48" value="&lt;u&gt;adapters:AngularUnit&lt;/u&gt;" style="rounded=0;whiteSpace=wrap;html=1;snapToPoint=1;points=[[0.1,0],[0.2,0],[0.3,0],[0.4,0],[0.5,0],[0.6,0],[0.7,0],[0.8,0],[0.9,0],[0,0.1],[0,0.3],[0,0.5],[0,0.7],[0,0.9],[0.1,1],[0.2,1],[0.3,1],[0.4,1],[0.5,1],[0.6,1],[0.7,1],[0.8,1],[0.9,1],[1,0.1],[1,0.3],[1,0.5],[1,0.7],[1,0.9]];" parent="1" vertex="1">
          <mxGeometry x="529.5" y="399" width="150" height="23" as="geometry" />
        </mxCell>
        <mxCell id="S2yTtaICxEiza2klLoan-49" value="&lt;u&gt;adapters:Distance&lt;/u&gt;" style="rounded=0;whiteSpace=wrap;html=1;snapToPoint=1;points=[[0.1,0],[0.2,0],[0.3,0],[0.4,0],[0.5,0],[0.6,0],[0.7,0],[0.8,0],[0.9,0],[0,0.1],[0,0.3],[0,0.5],[0,0.7],[0,0.9],[0.1,1],[0.2,1],[0.3,1],[0.4,1],[0.5,1],[0.6,1],[0.7,1],[0.8,1],[0.9,1],[1,0.1],[1,0.3],[1,0.5],[1,0.7],[1,0.9]];" parent="1" vertex="1">
          <mxGeometry x="529.5" y="434" width="150" height="23" as="geometry" />
        </mxCell>
        <mxCell id="S2yTtaICxEiza2klLoan-50" value="&lt;u&gt;adapters:DivPosition&lt;/u&gt;" style="rounded=0;whiteSpace=wrap;html=1;snapToPoint=1;points=[[0.1,0],[0.2,0],[0.3,0],[0.4,0],[0.5,0],[0.6,0],[0.7,0],[0.8,0],[0.9,0],[0,0.1],[0,0.3],[0,0.5],[0,0.7],[0,0.9],[0.1,1],[0.2,1],[0.3,1],[0.4,1],[0.5,1],[0.6,1],[0.7,1],[0.8,1],[0.9,1],[1,0.1],[1,0.3],[1,0.5],[1,0.7],[1,0.9]];" parent="1" vertex="1">
          <mxGeometry x="529.5" y="466" width="150" height="23" as="geometry" />
        </mxCell>
        <mxCell id="S2yTtaICxEiza2klLoan-51" value="" style="endArrow=open;html=1;fontColor=#000099;endFill=0;dashed=1;endSize=8;edgeStyle=orthogonalEdgeStyle;arcSize=0;exitX=0;exitY=0.1;exitDx=0;exitDy=0;" parent="1" source="S2yTtaICxEiza2klLoan-49" target="S2yTtaICxEiza2klLoan-3" edge="1">
          <mxGeometry width="50" height="50" relative="1" as="geometry">
            <mxPoint x="600" y="430" as="sourcePoint" />
            <mxPoint x="608.5" y="137" as="targetPoint" />
            <Array as="points">
              <mxPoint x="530" y="434" />
              <mxPoint x="510" y="434" />
              <mxPoint x="510" y="130" />
              <mxPoint x="554" y="130" />
            </Array>
          </mxGeometry>
        </mxCell>
        <mxCell id="S2yTtaICxEiza2klLoan-52" value="" style="endArrow=open;html=1;fontColor=#000099;endFill=0;dashed=1;endSize=8;edgeStyle=orthogonalEdgeStyle;arcSize=0;entryX=0.5;entryY=1;entryDx=0;entryDy=0;" parent="1" source="S2yTtaICxEiza2klLoan-50" target="S2yTtaICxEiza2klLoan-3" edge="1">
          <mxGeometry width="50" height="50" relative="1" as="geometry">
            <mxPoint x="580" y="432" as="sourcePoint" />
            <mxPoint x="608.5" y="136" as="targetPoint" />
            <Array as="points">
              <mxPoint x="510" y="467" />
              <mxPoint x="510" y="130" />
              <mxPoint x="554" y="130" />
            </Array>
          </mxGeometry>
        </mxCell>
        <mxCell id="S2yTtaICxEiza2klLoan-57" value="" style="endArrow=open;html=1;fontColor=#000099;endFill=0;dashed=1;endSize=8;exitX=0;exitY=0.5;exitDx=0;exitDy=0;edgeStyle=orthogonalEdgeStyle;arcSize=0;" parent="1" source="S2yTtaICxEiza2klLoan-58" target="S2yTtaICxEiza2klLoan-7" edge="1">
          <mxGeometry width="50" height="50" relative="1" as="geometry">
            <mxPoint x="124.75" y="270.5" as="sourcePoint" />
            <mxPoint x="275.25" y="140" as="targetPoint" />
            <Array as="points">
              <mxPoint x="200" y="159" />
              <mxPoint x="200" y="95" />
            </Array>
          </mxGeometry>
        </mxCell>
        <mxCell id="S2yTtaICxEiza2klLoan-58" value="&lt;u&gt;adapters:BatteryLevel&lt;/u&gt;" style="rounded=0;whiteSpace=wrap;html=1;snapToPoint=1;points=[[0.1,0],[0.2,0],[0.3,0],[0.4,0],[0.5,0],[0.6,0],[0.7,0],[0.8,0],[0.9,0],[0,0.1],[0,0.3],[0,0.5],[0,0.7],[0,0.9],[0.1,1],[0.2,1],[0.3,1],[0.4,1],[0.5,1],[0.6,1],[0.7,1],[0.8,1],[0.9,1],[1,0.1],[1,0.3],[1,0.5],[1,0.7],[1,0.9]];" parent="1" vertex="1">
          <mxGeometry x="294" y="147.5" width="185" height="23" as="geometry" />
        </mxCell>
        <mxCell id="S2yTtaICxEiza2klLoan-59" value="" style="endArrow=open;html=1;fontColor=#000099;endFill=0;dashed=1;endSize=8;exitX=0;exitY=0.5;exitDx=0;exitDy=0;edgeStyle=orthogonalEdgeStyle;arcSize=0;entryX=0;entryY=0.5;entryDx=0;entryDy=0;" parent="1" source="S2yTtaICxEiza2klLoan-60" target="S2yTtaICxEiza2klLoan-7" edge="1">
          <mxGeometry width="50" height="50" relative="1" as="geometry">
            <mxPoint x="135.75" y="474" as="sourcePoint" />
            <mxPoint x="275.25" y="140" as="targetPoint" />
            <Array as="points">
              <mxPoint x="200" y="230" />
              <mxPoint x="200" y="95" />
            </Array>
          </mxGeometry>
        </mxCell>
        <mxCell id="S2yTtaICxEiza2klLoan-60" value="&lt;u&gt;adapters:TotalEnergy&lt;/u&gt;" style="rounded=0;whiteSpace=wrap;html=1;snapToPoint=1;points=[[0.1,0],[0.2,0],[0.3,0],[0.4,0],[0.5,0],[0.6,0],[0.7,0],[0.8,0],[0.9,0],[0,0.1],[0,0.3],[0,0.5],[0,0.7],[0,0.9],[0.1,1],[0.2,1],[0.3,1],[0.4,1],[0.5,1],[0.6,1],[0.7,1],[0.8,1],[0.9,1],[1,0.1],[1,0.3],[1,0.5],[1,0.7],[1,0.9]];" parent="1" vertex="1">
          <mxGeometry x="295" y="218" width="185" height="23" as="geometry" />
        </mxCell>
        <mxCell id="S2yTtaICxEiza2klLoan-61" value="" style="endArrow=open;html=1;fontColor=#000099;endFill=0;dashed=1;endSize=8;exitX=0;exitY=0.5;exitDx=0;exitDy=0;edgeStyle=orthogonalEdgeStyle;arcSize=0;" parent="1" source="S2yTtaICxEiza2klLoan-62" target="S2yTtaICxEiza2klLoan-7" edge="1">
          <mxGeometry width="50" height="50" relative="1" as="geometry">
            <mxPoint x="171.75" y="396" as="sourcePoint" />
            <mxPoint x="275.25" y="140" as="targetPoint" />
            <Array as="points">
              <mxPoint x="200" y="195" />
              <mxPoint x="200" y="95" />
            </Array>
          </mxGeometry>
        </mxCell>
        <mxCell id="S2yTtaICxEiza2klLoan-62" value="&lt;u&gt;adapters:ReturnedEnergy&lt;/u&gt;" style="rounded=0;whiteSpace=wrap;html=1;snapToPoint=1;points=[[0.1,0],[0.2,0],[0.3,0],[0.4,0],[0.5,0],[0.6,0],[0.7,0],[0.8,0],[0.9,0],[0,0.1],[0,0.3],[0,0.5],[0,0.7],[0,0.9],[0.1,1],[0.2,1],[0.3,1],[0.4,1],[0.5,1],[0.6,1],[0.7,1],[0.8,1],[0.9,1],[1,0.1],[1,0.3],[1,0.5],[1,0.7],[1,0.9]];" parent="1" vertex="1">
          <mxGeometry x="294" y="183" width="185" height="23" as="geometry" />
        </mxCell>
        <mxCell id="S2yTtaICxEiza2klLoan-63" value="&lt;u&gt;adapters:PowerFactor&lt;/u&gt;" style="rounded=0;whiteSpace=wrap;html=1;snapToPoint=1;points=[[0.1,0],[0.2,0],[0.3,0],[0.4,0],[0.5,0],[0.6,0],[0.7,0],[0.8,0],[0.9,0],[0,0.1],[0,0.3],[0,0.5],[0,0.7],[0,0.9],[0.1,1],[0.2,1],[0.3,1],[0.4,1],[0.5,1],[0.6,1],[0.7,1],[0.8,1],[0.9,1],[1,0.1],[1,0.3],[1,0.5],[1,0.7],[1,0.9]];" parent="1" vertex="1">
          <mxGeometry x="294" y="255" width="185" height="23" as="geometry" />
        </mxCell>
        <mxCell id="S2yTtaICxEiza2klLoan-64" value="" style="endArrow=open;html=1;fontColor=#000099;endFill=0;dashed=1;endSize=8;exitX=0;exitY=0.5;exitDx=0;exitDy=0;edgeStyle=orthogonalEdgeStyle;arcSize=0;" parent="1" source="S2yTtaICxEiza2klLoan-63" target="S2yTtaICxEiza2klLoan-7" edge="1">
          <mxGeometry width="50" height="50" relative="1" as="geometry">
            <mxPoint x="305" y="245.5" as="sourcePoint" />
            <mxPoint x="275.25" y="140" as="targetPoint" />
            <Array as="points">
              <mxPoint x="200" y="267" />
              <mxPoint x="200" y="95" />
            </Array>
          </mxGeometry>
        </mxCell>
        <mxCell id="S2yTtaICxEiza2klLoan-65" value="&lt;u&gt;adapters:ActiveEnergy&lt;/u&gt;" style="rounded=0;whiteSpace=wrap;html=1;snapToPoint=1;points=[[0.1,0],[0.2,0],[0.3,0],[0.4,0],[0.5,0],[0.6,0],[0.7,0],[0.8,0],[0.9,0],[0,0.1],[0,0.3],[0,0.5],[0,0.7],[0,0.9],[0.1,1],[0.2,1],[0.3,1],[0.4,1],[0.5,1],[0.6,1],[0.7,1],[0.8,1],[0.9,1],[1,0.1],[1,0.3],[1,0.5],[1,0.7],[1,0.9]];" parent="1" vertex="1">
          <mxGeometry x="218.75" y="296.38" width="269" height="23" as="geometry" />
        </mxCell>
        <mxCell id="S2yTtaICxEiza2klLoan-66" value="&lt;u&gt;adapters:ReactiveInductiveEnergy&lt;/u&gt;" style="rounded=0;whiteSpace=wrap;html=1;snapToPoint=1;points=[[0.1,0],[0.2,0],[0.3,0],[0.4,0],[0.5,0],[0.6,0],[0.7,0],[0.8,0],[0.9,0],[0,0.1],[0,0.3],[0,0.5],[0,0.7],[0,0.9],[0.1,1],[0.2,1],[0.3,1],[0.4,1],[0.5,1],[0.6,1],[0.7,1],[0.8,1],[0.9,1],[1,0.1],[1,0.3],[1,0.5],[1,0.7],[1,0.9]];" parent="1" vertex="1">
          <mxGeometry x="218.75" y="329.38" width="269" height="23" as="geometry" />
        </mxCell>
        <mxCell id="S2yTtaICxEiza2klLoan-67" value="&lt;u&gt;adapters:ReactiveCapacitiveEnergy&lt;/u&gt;" style="rounded=0;whiteSpace=wrap;html=1;snapToPoint=1;points=[[0.1,0],[0.2,0],[0.3,0],[0.4,0],[0.5,0],[0.6,0],[0.7,0],[0.8,0],[0.9,0],[0,0.1],[0,0.3],[0,0.5],[0,0.7],[0,0.9],[0.1,1],[0.2,1],[0.3,1],[0.4,1],[0.5,1],[0.6,1],[0.7,1],[0.8,1],[0.9,1],[1,0.1],[1,0.3],[1,0.5],[1,0.7],[1,0.9]];" parent="1" vertex="1">
          <mxGeometry x="219.75" y="359.38" width="269" height="23" as="geometry" />
        </mxCell>
        <mxCell id="S2yTtaICxEiza2klLoan-68" value="" style="endArrow=open;html=1;fontColor=#000099;endFill=0;dashed=1;endSize=8;edgeStyle=orthogonalEdgeStyle;arcSize=0;exitX=0;exitY=0.5;exitDx=0;exitDy=0;" parent="1" source="S2yTtaICxEiza2klLoan-65" target="S2yTtaICxEiza2klLoan-7" edge="1">
          <mxGeometry width="50" height="50" relative="1" as="geometry">
            <mxPoint x="216" y="308.38" as="sourcePoint" />
            <mxPoint x="181" y="144.63" as="targetPoint" />
            <Array as="points">
              <mxPoint x="200" y="308" />
              <mxPoint x="200" y="95" />
            </Array>
          </mxGeometry>
        </mxCell>
        <mxCell id="S2yTtaICxEiza2klLoan-69" value="" style="endArrow=open;html=1;fontColor=#000099;endFill=0;dashed=1;endSize=8;edgeStyle=orthogonalEdgeStyle;arcSize=0;exitX=0;exitY=0.3;exitDx=0;exitDy=0;entryX=0;entryY=0.5;entryDx=0;entryDy=0;" parent="1" source="S2yTtaICxEiza2klLoan-66" target="S2yTtaICxEiza2klLoan-7" edge="1">
          <mxGeometry width="50" height="50" relative="1" as="geometry">
            <mxPoint x="218.75" y="349.38" as="sourcePoint" />
            <mxPoint x="181" y="144.63" as="targetPoint" />
            <Array as="points">
              <mxPoint x="200" y="336" />
              <mxPoint x="200" y="95" />
            </Array>
          </mxGeometry>
        </mxCell>
        <mxCell id="S2yTtaICxEiza2klLoan-70" value="" style="endArrow=open;html=1;fontColor=#000099;endFill=0;dashed=1;endSize=8;edgeStyle=orthogonalEdgeStyle;arcSize=0;exitX=0;exitY=0.7;exitDx=0;exitDy=0;" parent="1" source="S2yTtaICxEiza2klLoan-67" target="S2yTtaICxEiza2klLoan-7" edge="1">
          <mxGeometry width="50" height="50" relative="1" as="geometry">
            <mxPoint x="217" y="380.38" as="sourcePoint" />
            <mxPoint x="181" y="144.63" as="targetPoint" />
            <Array as="points">
              <mxPoint x="217" y="376" />
              <mxPoint x="217" y="378" />
              <mxPoint x="200" y="378" />
              <mxPoint x="200" y="95" />
            </Array>
          </mxGeometry>
        </mxCell>
        <mxCell id="S2yTtaICxEiza2klLoan-71" value="&lt;u&gt;adapters:GridFrequency&lt;/u&gt;" style="rounded=0;whiteSpace=wrap;html=1;snapToPoint=1;points=[[0.1,0],[0.2,0],[0.3,0],[0.4,0],[0.5,0],[0.6,0],[0.7,0],[0.8,0],[0.9,0],[0,0.1],[0,0.3],[0,0.5],[0,0.7],[0,0.9],[0.1,1],[0.2,1],[0.3,1],[0.4,1],[0.5,1],[0.6,1],[0.7,1],[0.8,1],[0.9,1],[1,0.1],[1,0.3],[1,0.5],[1,0.7],[1,0.9]];" parent="1" vertex="1">
          <mxGeometry x="218" y="389.38" width="269" height="23" as="geometry" />
        </mxCell>
        <mxCell id="S2yTtaICxEiza2klLoan-72" value="&lt;u&gt;adapters:GridDemand&lt;/u&gt;" style="rounded=0;whiteSpace=wrap;html=1;snapToPoint=1;points=[[0.1,0],[0.2,0],[0.3,0],[0.4,0],[0.5,0],[0.6,0],[0.7,0],[0.8,0],[0.9,0],[0,0.1],[0,0.3],[0,0.5],[0,0.7],[0,0.9],[0.1,1],[0.2,1],[0.3,1],[0.4,1],[0.5,1],[0.6,1],[0.7,1],[0.8,1],[0.9,1],[1,0.1],[1,0.3],[1,0.5],[1,0.7],[1,0.9]];" parent="1" vertex="1">
          <mxGeometry x="219" y="422.38" width="269" height="23" as="geometry" />
        </mxCell>
        <mxCell id="S2yTtaICxEiza2klLoan-73" value="&lt;u&gt;adapters:GridCapacity&lt;/u&gt;" style="rounded=0;whiteSpace=wrap;html=1;snapToPoint=1;points=[[0.1,0],[0.2,0],[0.3,0],[0.4,0],[0.5,0],[0.6,0],[0.7,0],[0.8,0],[0.9,0],[0,0.1],[0,0.3],[0,0.5],[0,0.7],[0,0.9],[0.1,1],[0.2,1],[0.3,1],[0.4,1],[0.5,1],[0.6,1],[0.7,1],[0.8,1],[0.9,1],[1,0.1],[1,0.3],[1,0.5],[1,0.7],[1,0.9]];" parent="1" vertex="1">
          <mxGeometry x="217.75" y="461.38" width="269" height="23" as="geometry" />
        </mxCell>
        <mxCell id="S2yTtaICxEiza2klLoan-74" value="&lt;u&gt;adapters:EnergyConsumption&lt;/u&gt;" style="rounded=0;whiteSpace=wrap;html=1;snapToPoint=1;points=[[0.1,0],[0.2,0],[0.3,0],[0.4,0],[0.5,0],[0.6,0],[0.7,0],[0.8,0],[0.9,0],[0,0.1],[0,0.3],[0,0.5],[0,0.7],[0,0.9],[0.1,1],[0.2,1],[0.3,1],[0.4,1],[0.5,1],[0.6,1],[0.7,1],[0.8,1],[0.9,1],[1,0.1],[1,0.3],[1,0.5],[1,0.7],[1,0.9]];" parent="1" vertex="1">
          <mxGeometry x="215.75" y="499.38" width="269" height="23" as="geometry" />
        </mxCell>
        <mxCell id="S2yTtaICxEiza2klLoan-75" value="" style="endArrow=open;html=1;fontColor=#000099;endFill=0;dashed=1;endSize=8;edgeStyle=orthogonalEdgeStyle;arcSize=0;" parent="1" source="S2yTtaICxEiza2klLoan-71" target="S2yTtaICxEiza2klLoan-7" edge="1">
          <mxGeometry width="50" height="50" relative="1" as="geometry">
            <mxPoint x="220" y="400.88000000000045" as="sourcePoint" />
            <mxPoint x="180" y="144.63" as="targetPoint" />
            <Array as="points">
              <mxPoint x="200" y="403" />
              <mxPoint x="200" y="95" />
            </Array>
          </mxGeometry>
        </mxCell>
        <mxCell id="S2yTtaICxEiza2klLoan-76" value="" style="endArrow=open;html=1;fontColor=#000099;endFill=0;dashed=1;endSize=8;edgeStyle=orthogonalEdgeStyle;arcSize=0;exitX=0;exitY=0.5;exitDx=0;exitDy=0;" parent="1" target="S2yTtaICxEiza2klLoan-7" edge="1">
          <mxGeometry width="50" height="50" relative="1" as="geometry">
            <mxPoint x="221" y="433.88000000000045" as="sourcePoint" />
            <mxPoint x="180" y="144.63" as="targetPoint" />
            <Array as="points">
              <mxPoint x="221" y="438" />
              <mxPoint x="200" y="438" />
              <mxPoint x="200" y="95" />
            </Array>
          </mxGeometry>
        </mxCell>
        <mxCell id="S2yTtaICxEiza2klLoan-77" value="" style="endArrow=open;html=1;fontColor=#000099;endFill=0;dashed=1;endSize=8;edgeStyle=orthogonalEdgeStyle;arcSize=0;exitX=0;exitY=0.7;exitDx=0;exitDy=0;" parent="1" target="S2yTtaICxEiza2klLoan-7" edge="1">
          <mxGeometry width="50" height="50" relative="1" as="geometry">
            <mxPoint x="220.75" y="477.4799999999999" as="sourcePoint" />
            <mxPoint x="181" y="144.63" as="targetPoint" />
            <Array as="points">
              <mxPoint x="200" y="478" />
              <mxPoint x="200" y="95" />
            </Array>
          </mxGeometry>
        </mxCell>
        <mxCell id="S2yTtaICxEiza2klLoan-78" value="" style="endArrow=open;html=1;fontColor=#000099;endFill=0;dashed=1;endSize=8;edgeStyle=orthogonalEdgeStyle;arcSize=0;exitX=0;exitY=0.5;exitDx=0;exitDy=0;" parent="1" target="S2yTtaICxEiza2klLoan-7" edge="1">
          <mxGeometry width="50" height="50" relative="1" as="geometry">
            <mxPoint x="217.75" y="510.88000000000045" as="sourcePoint" />
            <mxPoint x="180" y="144.63" as="targetPoint" />
            <Array as="points">
              <mxPoint x="218" y="516" />
              <mxPoint x="200" y="516" />
              <mxPoint x="200" y="95" />
            </Array>
          </mxGeometry>
        </mxCell>
        <mxCell id="S2yTtaICxEiza2klLoan-79" value="&lt;u&gt;adapters:&lt;/u&gt;&lt;u&gt;EnergyUseIntensity&lt;/u&gt;" style="rounded=0;whiteSpace=wrap;html=1;snapToPoint=1;points=[[0.1,0],[0.2,0],[0.3,0],[0.4,0],[0.5,0],[0.6,0],[0.7,0],[0.8,0],[0.9,0],[0,0.1],[0,0.3],[0,0.5],[0,0.7],[0,0.9],[0.1,1],[0.2,1],[0.3,1],[0.4,1],[0.5,1],[0.6,1],[0.7,1],[0.8,1],[0.9,1],[1,0.1],[1,0.3],[1,0.5],[1,0.7],[1,0.9]];" parent="1" vertex="1">
          <mxGeometry x="215.75" y="536.38" width="269" height="23" as="geometry" />
        </mxCell>
        <mxCell id="S2yTtaICxEiza2klLoan-80" value="" style="endArrow=open;html=1;fontColor=#000099;endFill=0;dashed=1;endSize=8;edgeStyle=orthogonalEdgeStyle;arcSize=0;" parent="1" source="S2yTtaICxEiza2klLoan-79" target="S2yTtaICxEiza2klLoan-7" edge="1">
          <mxGeometry width="50" height="50" relative="1" as="geometry">
            <mxPoint x="217.70000000000005" y="541.3800000000005" as="sourcePoint" />
            <mxPoint x="180" y="144.63" as="targetPoint" />
            <Array as="points">
              <mxPoint x="200" y="548" />
              <mxPoint x="200" y="95" />
            </Array>
          </mxGeometry>
        </mxCell>
        <mxCell id="S2yTtaICxEiza2klLoan-81" value="" style="endArrow=open;html=1;fontColor=#000099;endFill=0;dashed=1;endSize=8;edgeStyle=orthogonalEdgeStyle;arcSize=0;" parent="1" source="S2yTtaICxEiza2klLoan-82" target="S2yTtaICxEiza2klLoan-7" edge="1">
          <mxGeometry width="50" height="50" relative="1" as="geometry">
            <mxPoint x="461.25" y="710.5" as="sourcePoint" />
            <mxPoint x="200" y="500" as="targetPoint" />
            <Array as="points">
              <mxPoint x="200" y="660" />
              <mxPoint x="200" y="95" />
            </Array>
          </mxGeometry>
        </mxCell>
        <mxCell id="S2yTtaICxEiza2klLoan-82" value="&lt;u&gt;adapters:GridVoltage&lt;/u&gt;" style="rounded=0;whiteSpace=wrap;html=1;snapToPoint=1;points=[[0.1,0],[0.2,0],[0.3,0],[0.4,0],[0.5,0],[0.6,0],[0.7,0],[0.8,0],[0.9,0],[0,0.1],[0,0.3],[0,0.5],[0,0.7],[0,0.9],[0.1,1],[0.2,1],[0.3,1],[0.4,1],[0.5,1],[0.6,1],[0.7,1],[0.8,1],[0.9,1],[1,0.1],[1,0.3],[1,0.5],[1,0.7],[1,0.9]];" parent="1" vertex="1">
          <mxGeometry x="220" y="648" width="267.75" height="23" as="geometry" />
        </mxCell>
        <mxCell id="S2yTtaICxEiza2klLoan-83" value="" style="endArrow=open;html=1;fontColor=#000099;endFill=0;dashed=1;endSize=8;edgeStyle=orthogonalEdgeStyle;arcSize=0;" parent="1" source="S2yTtaICxEiza2klLoan-84" target="S2yTtaICxEiza2klLoan-7" edge="1">
          <mxGeometry width="50" height="50" relative="1" as="geometry">
            <mxPoint x="471.25" y="720.5" as="sourcePoint" />
            <mxPoint x="200" y="550" as="targetPoint" />
            <Array as="points">
              <mxPoint x="200" y="625" />
              <mxPoint x="200" y="95" />
            </Array>
          </mxGeometry>
        </mxCell>
        <mxCell id="S2yTtaICxEiza2klLoan-84" value="&lt;u&gt;adapters:InstantaneousActivePower&lt;/u&gt;" style="rounded=0;whiteSpace=wrap;html=1;snapToPoint=1;points=[[0.1,0],[0.2,0],[0.3,0],[0.4,0],[0.5,0],[0.6,0],[0.7,0],[0.8,0],[0.9,0],[0,0.1],[0,0.3],[0,0.5],[0,0.7],[0,0.9],[0.1,1],[0.2,1],[0.3,1],[0.4,1],[0.5,1],[0.6,1],[0.7,1],[0.8,1],[0.9,1],[1,0.1],[1,0.3],[1,0.5],[1,0.7],[1,0.9]];" parent="1" vertex="1">
          <mxGeometry x="220" y="613" width="267.75" height="23" as="geometry" />
        </mxCell>
        <mxCell id="S2yTtaICxEiza2klLoan-85" value="" style="endArrow=open;html=1;fontColor=#000099;endFill=0;dashed=1;endSize=8;edgeStyle=orthogonalEdgeStyle;arcSize=0;" parent="1" source="S2yTtaICxEiza2klLoan-86" target="S2yTtaICxEiza2klLoan-7" edge="1">
          <mxGeometry width="50" height="50" relative="1" as="geometry">
            <mxPoint x="452.25" y="894" as="sourcePoint" />
            <mxPoint x="200" y="550" as="targetPoint" />
            <Array as="points">
              <mxPoint x="200" y="589" />
              <mxPoint x="200" y="95" />
            </Array>
          </mxGeometry>
        </mxCell>
        <mxCell id="S2yTtaICxEiza2klLoan-86" value="&lt;u&gt;adapters:TotalReturnedEnergy&lt;/u&gt;" style="rounded=0;whiteSpace=wrap;html=1;snapToPoint=1;points=[[0.1,0],[0.2,0],[0.3,0],[0.4,0],[0.5,0],[0.6,0],[0.7,0],[0.8,0],[0.9,0],[0,0.1],[0,0.3],[0,0.5],[0,0.7],[0,0.9],[0.1,1],[0.2,1],[0.3,1],[0.4,1],[0.5,1],[0.6,1],[0.7,1],[0.8,1],[0.9,1],[1,0.1],[1,0.3],[1,0.5],[1,0.7],[1,0.9]];" parent="1" vertex="1">
          <mxGeometry x="220" y="577.5" width="267.75" height="23" as="geometry" />
        </mxCell>
        <mxCell id="S2yTtaICxEiza2klLoan-89" value="&lt;u&gt;adapters:InstantaneousReactiveInductivePower&lt;/u&gt;" style="rounded=0;whiteSpace=wrap;html=1;snapToPoint=1;points=[[0.1,0],[0.2,0],[0.3,0],[0.4,0],[0.5,0],[0.6,0],[0.7,0],[0.8,0],[0.9,0],[0,0.1],[0,0.3],[0,0.5],[0,0.7],[0,0.9],[0.1,1],[0.2,1],[0.3,1],[0.4,1],[0.5,1],[0.6,1],[0.7,1],[0.8,1],[0.9,1],[1,0.1],[1,0.3],[1,0.5],[1,0.7],[1,0.9]];" parent="1" vertex="1">
          <mxGeometry x="215.75" y="714.75" width="269" height="23" as="geometry" />
        </mxCell>
        <mxCell id="S2yTtaICxEiza2klLoan-90" value="&lt;u&gt;adapters:InstantaneousCapacitiveInductivePower&lt;/u&gt;" style="rounded=0;whiteSpace=wrap;html=1;snapToPoint=1;points=[[0.1,0],[0.2,0],[0.3,0],[0.4,0],[0.5,0],[0.6,0],[0.7,0],[0.8,0],[0.9,0],[0,0.1],[0,0.3],[0,0.5],[0,0.7],[0,0.9],[0.1,1],[0.2,1],[0.3,1],[0.4,1],[0.5,1],[0.6,1],[0.7,1],[0.8,1],[0.9,1],[1,0.1],[1,0.3],[1,0.5],[1,0.7],[1,0.9]];" parent="1" vertex="1">
          <mxGeometry x="215.75" y="744.75" width="269" height="23" as="geometry" />
        </mxCell>
        <mxCell id="S2yTtaICxEiza2klLoan-91" value="" style="endArrow=open;html=1;fontColor=#000099;endFill=0;dashed=1;endSize=8;edgeStyle=orthogonalEdgeStyle;arcSize=0;" parent="1" source="S2yTtaICxEiza2klLoan-89" target="S2yTtaICxEiza2klLoan-7" edge="1">
          <mxGeometry width="50" height="50" relative="1" as="geometry">
            <mxPoint x="497.75" y="727" as="sourcePoint" />
            <mxPoint x="200" y="530" as="targetPoint" />
            <Array as="points">
              <mxPoint x="200" y="726" />
              <mxPoint x="200" y="95" />
            </Array>
          </mxGeometry>
        </mxCell>
        <mxCell id="S2yTtaICxEiza2klLoan-92" value="" style="endArrow=open;html=1;fontColor=#000099;endFill=0;dashed=1;endSize=8;edgeStyle=orthogonalEdgeStyle;arcSize=0;" parent="1" source="S2yTtaICxEiza2klLoan-90" target="S2yTtaICxEiza2klLoan-7" edge="1">
          <mxGeometry width="50" height="50" relative="1" as="geometry">
            <mxPoint x="494.75" y="752.75" as="sourcePoint" />
            <mxPoint x="200" y="530" as="targetPoint" />
            <Array as="points">
              <mxPoint x="200" y="752" />
              <mxPoint x="200" y="95" />
            </Array>
          </mxGeometry>
        </mxCell>
        <mxCell id="S2yTtaICxEiza2klLoan-93" value="&lt;u&gt;adapters:ElectricVoltage&lt;/u&gt;" style="rounded=0;whiteSpace=wrap;html=1;snapToPoint=1;points=[[0.1,0],[0.2,0],[0.3,0],[0.4,0],[0.5,0],[0.6,0],[0.7,0],[0.8,0],[0.9,0],[0,0.1],[0,0.3],[0,0.5],[0,0.7],[0,0.9],[0.1,1],[0.2,1],[0.3,1],[0.4,1],[0.5,1],[0.6,1],[0.7,1],[0.8,1],[0.9,1],[1,0.1],[1,0.3],[1,0.5],[1,0.7],[1,0.9]];" parent="1" vertex="1">
          <mxGeometry x="215.75" y="784.75" width="269" height="23" as="geometry" />
        </mxCell>
        <mxCell id="S2yTtaICxEiza2klLoan-94" value="&lt;u&gt;adapters:InstantaneousApparentPower&lt;/u&gt;" style="rounded=0;whiteSpace=wrap;html=1;snapToPoint=1;points=[[0.1,0],[0.2,0],[0.3,0],[0.4,0],[0.5,0],[0.6,0],[0.7,0],[0.8,0],[0.9,0],[0,0.1],[0,0.3],[0,0.5],[0,0.7],[0,0.9],[0.1,1],[0.2,1],[0.3,1],[0.4,1],[0.5,1],[0.6,1],[0.7,1],[0.8,1],[0.9,1],[1,0.1],[1,0.3],[1,0.5],[1,0.7],[1,0.9]];" parent="1" vertex="1">
          <mxGeometry x="216.75" y="863.75" width="269" height="23" as="geometry" />
        </mxCell>
        <mxCell id="S2yTtaICxEiza2klLoan-95" value="" style="endArrow=open;html=1;fontColor=#000099;endFill=0;dashed=1;endSize=8;exitX=0.9;exitY=1;exitDx=0;exitDy=0;edgeStyle=orthogonalEdgeStyle;arcSize=0;" parent="1" source="S2yTtaICxEiza2klLoan-93" target="S2yTtaICxEiza2klLoan-7" edge="1">
          <mxGeometry width="50" height="50" relative="1" as="geometry">
            <mxPoint x="495.5" y="794.6500000000001" as="sourcePoint" />
            <mxPoint x="200" y="440" as="targetPoint" />
            <Array as="points">
              <mxPoint x="200" y="808" />
              <mxPoint x="200" y="95" />
            </Array>
          </mxGeometry>
        </mxCell>
        <mxCell id="S2yTtaICxEiza2klLoan-97" value="" style="endArrow=open;html=1;fontColor=#000099;endFill=0;dashed=1;endSize=8;edgeStyle=orthogonalEdgeStyle;arcSize=0;" parent="1" source="S2yTtaICxEiza2klLoan-94" target="S2yTtaICxEiza2klLoan-7" edge="1">
          <mxGeometry width="50" height="50" relative="1" as="geometry">
            <mxPoint x="420" y="880" as="sourcePoint" />
            <mxPoint x="200" y="480" as="targetPoint" />
            <Array as="points">
              <mxPoint x="200" y="875" />
              <mxPoint x="200" y="95" />
            </Array>
          </mxGeometry>
        </mxCell>
        <mxCell id="S2yTtaICxEiza2klLoan-98" value="&lt;u&gt;adapters:EnergyProduction&lt;/u&gt;" style="rounded=0;whiteSpace=wrap;html=1;snapToPoint=1;points=[[0.1,0],[0.2,0],[0.3,0],[0.4,0],[0.5,0],[0.6,0],[0.7,0],[0.8,0],[0.9,0],[0,0.1],[0,0.3],[0,0.5],[0,0.7],[0,0.9],[0.1,1],[0.2,1],[0.3,1],[0.4,1],[0.5,1],[0.6,1],[0.7,1],[0.8,1],[0.9,1],[1,0.1],[1,0.3],[1,0.5],[1,0.7],[1,0.9]];" parent="1" vertex="1">
          <mxGeometry x="218.75" y="896.75" width="269" height="23" as="geometry" />
        </mxCell>
        <mxCell id="S2yTtaICxEiza2klLoan-99" value="" style="endArrow=open;html=1;fontColor=#000099;endFill=0;dashed=1;endSize=8;edgeStyle=orthogonalEdgeStyle;arcSize=0;" parent="1" source="S2yTtaICxEiza2klLoan-98" target="S2yTtaICxEiza2klLoan-7" edge="1">
          <mxGeometry width="50" height="50" relative="1" as="geometry">
            <mxPoint x="498.5" y="909.6599999999999" as="sourcePoint" />
            <mxPoint x="200" y="570" as="targetPoint" />
            <Array as="points">
              <mxPoint x="200" y="908" />
              <mxPoint x="200" y="95" />
            </Array>
          </mxGeometry>
        </mxCell>
        <mxCell id="S2yTtaICxEiza2klLoan-100" value="&lt;u&gt;adapters:ElectricCurrent&lt;/u&gt;" style="rounded=0;whiteSpace=wrap;html=1;snapToPoint=1;points=[[0.1,0],[0.2,0],[0.3,0],[0.4,0],[0.5,0],[0.6,0],[0.7,0],[0.8,0],[0.9,0],[0,0.1],[0,0.3],[0,0.5],[0,0.7],[0,0.9],[0.1,1],[0.2,1],[0.3,1],[0.4,1],[0.5,1],[0.6,1],[0.7,1],[0.8,1],[0.9,1],[1,0.1],[1,0.3],[1,0.5],[1,0.7],[1,0.9]];" parent="1" vertex="1">
          <mxGeometry x="220" y="680.25" width="270" height="23" as="geometry" />
        </mxCell>
        <mxCell id="S2yTtaICxEiza2klLoan-101" value="" style="endArrow=open;html=1;fontColor=#000099;endFill=0;dashed=1;endSize=8;exitX=0;exitY=0.5;exitDx=0;exitDy=0;edgeStyle=orthogonalEdgeStyle;arcSize=0;" parent="1" source="S2yTtaICxEiza2klLoan-100" target="S2yTtaICxEiza2klLoan-7" edge="1">
          <mxGeometry width="50" height="50" relative="1" as="geometry">
            <mxPoint x="214" y="693.88" as="sourcePoint" />
            <mxPoint x="180" y="522.38" as="targetPoint" />
            <Array as="points">
              <mxPoint x="220" y="694" />
              <mxPoint x="200" y="694" />
              <mxPoint x="200" y="95" />
            </Array>
          </mxGeometry>
        </mxCell>
        <mxCell id="S2yTtaICxEiza2klLoan-102" value="&lt;u&gt;adapters:InstantaneousReactivePower&lt;/u&gt;" style="rounded=0;whiteSpace=wrap;html=1;snapToPoint=1;points=[[0.1,0],[0.2,0],[0.3,0],[0.4,0],[0.5,0],[0.6,0],[0.7,0],[0.8,0],[0.9,0],[0,0.1],[0,0.3],[0,0.5],[0,0.7],[0,0.9],[0.1,1],[0.2,1],[0.3,1],[0.4,1],[0.5,1],[0.6,1],[0.7,1],[0.8,1],[0.9,1],[1,0.1],[1,0.3],[1,0.5],[1,0.7],[1,0.9]];" parent="1" vertex="1">
          <mxGeometry x="221" y="820" width="269" height="23" as="geometry" />
        </mxCell>
        <mxCell id="S2yTtaICxEiza2klLoan-103" value="" style="endArrow=open;html=1;fontColor=#000099;endFill=0;dashed=1;endSize=8;edgeStyle=orthogonalEdgeStyle;arcSize=0;" parent="1" source="S2yTtaICxEiza2klLoan-102" target="S2yTtaICxEiza2klLoan-7" edge="1">
          <mxGeometry width="50" height="50" relative="1" as="geometry">
            <mxPoint x="220" y="834.5" as="sourcePoint" />
            <mxPoint x="260" y="237.75" as="targetPoint" />
            <Array as="points">
              <mxPoint x="200" y="837" />
              <mxPoint x="200" y="95" />
            </Array>
          </mxGeometry>
        </mxCell>
        <mxCell id="S2yTtaICxEiza2klLoan-104" value="&lt;u&gt;adapters:Weight&lt;/u&gt;" style="rounded=0;whiteSpace=wrap;html=1;snapToPoint=1;points=[[0.1,0],[0.2,0],[0.3,0],[0.4,0],[0.5,0],[0.6,0],[0.7,0],[0.8,0],[0.9,0],[0,0.1],[0,0.3],[0,0.5],[0,0.7],[0,0.9],[0.1,1],[0.2,1],[0.3,1],[0.4,1],[0.5,1],[0.6,1],[0.7,1],[0.8,1],[0.9,1],[1,0.1],[1,0.3],[1,0.5],[1,0.7],[1,0.9]];" parent="1" vertex="1">
          <mxGeometry x="-229" y="124.25" width="173" height="23" as="geometry" />
        </mxCell>
        <mxCell id="S2yTtaICxEiza2klLoan-105" value="&lt;u&gt;adapters:SystolicBloodPressure&lt;/u&gt;" style="rounded=0;whiteSpace=wrap;html=1;snapToPoint=1;points=[[0.1,0],[0.2,0],[0.3,0],[0.4,0],[0.5,0],[0.6,0],[0.7,0],[0.8,0],[0.9,0],[0,0.1],[0,0.3],[0,0.5],[0,0.7],[0,0.9],[0.1,1],[0.2,1],[0.3,1],[0.4,1],[0.5,1],[0.6,1],[0.7,1],[0.8,1],[0.9,1],[1,0.1],[1,0.3],[1,0.5],[1,0.7],[1,0.9]];" parent="1" vertex="1">
          <mxGeometry x="-240" y="164.75" width="184" height="23" as="geometry" />
        </mxCell>
        <mxCell id="S2yTtaICxEiza2klLoan-106" value="&lt;u&gt;adapters:DiastolicBloodPressure&lt;/u&gt;" style="rounded=0;whiteSpace=wrap;html=1;snapToPoint=1;points=[[0.1,0],[0.2,0],[0.3,0],[0.4,0],[0.5,0],[0.6,0],[0.7,0],[0.8,0],[0.9,0],[0,0.1],[0,0.3],[0,0.5],[0,0.7],[0,0.9],[0.1,1],[0.2,1],[0.3,1],[0.4,1],[0.5,1],[0.6,1],[0.7,1],[0.8,1],[0.9,1],[1,0.1],[1,0.3],[1,0.5],[1,0.7],[1,0.9]];" parent="1" vertex="1">
          <mxGeometry x="-240" y="202.75" width="184" height="23" as="geometry" />
        </mxCell>
        <mxCell id="S2yTtaICxEiza2klLoan-107" value="&lt;u&gt;adapters:HeartRate&lt;/u&gt;" style="rounded=0;whiteSpace=wrap;html=1;snapToPoint=1;points=[[0.1,0],[0.2,0],[0.3,0],[0.4,0],[0.5,0],[0.6,0],[0.7,0],[0.8,0],[0.9,0],[0,0.1],[0,0.3],[0,0.5],[0,0.7],[0,0.9],[0.1,1],[0.2,1],[0.3,1],[0.4,1],[0.5,1],[0.6,1],[0.7,1],[0.8,1],[0.9,1],[1,0.1],[1,0.3],[1,0.5],[1,0.7],[1,0.9]];" parent="1" vertex="1">
          <mxGeometry x="-226" y="234.75" width="170" height="23" as="geometry" />
        </mxCell>
        <mxCell id="S2yTtaICxEiza2klLoan-108" value="&lt;u&gt;adapters:CaloriesBurned&lt;/u&gt;" style="rounded=0;whiteSpace=wrap;html=1;snapToPoint=1;points=[[0.1,0],[0.2,0],[0.3,0],[0.4,0],[0.5,0],[0.6,0],[0.7,0],[0.8,0],[0.9,0],[0,0.1],[0,0.3],[0,0.5],[0,0.7],[0,0.9],[0.1,1],[0.2,1],[0.3,1],[0.4,1],[0.5,1],[0.6,1],[0.7,1],[0.8,1],[0.9,1],[1,0.1],[1,0.3],[1,0.5],[1,0.7],[1,0.9]];" parent="1" vertex="1">
          <mxGeometry x="-226" y="264.25" width="170" height="23" as="geometry" />
        </mxCell>
        <mxCell id="S2yTtaICxEiza2klLoan-109" value="&lt;u&gt;adapters:Sleep&lt;/u&gt;" style="rounded=0;whiteSpace=wrap;html=1;snapToPoint=1;points=[[0.1,0],[0.2,0],[0.3,0],[0.4,0],[0.5,0],[0.6,0],[0.7,0],[0.8,0],[0.9,0],[0,0.1],[0,0.3],[0,0.5],[0,0.7],[0,0.9],[0.1,1],[0.2,1],[0.3,1],[0.4,1],[0.5,1],[0.6,1],[0.7,1],[0.8,1],[0.9,1],[1,0.1],[1,0.3],[1,0.5],[1,0.7],[1,0.9]];" parent="1" vertex="1">
          <mxGeometry x="-226" y="294" width="170" height="23" as="geometry" />
        </mxCell>
        <mxCell id="S2yTtaICxEiza2klLoan-110" value="&lt;u&gt;adapters:BasalMetabolicRate&lt;/u&gt;" style="rounded=0;whiteSpace=wrap;html=1;snapToPoint=1;points=[[0.1,0],[0.2,0],[0.3,0],[0.4,0],[0.5,0],[0.6,0],[0.7,0],[0.8,0],[0.9,0],[0,0.1],[0,0.3],[0,0.5],[0,0.7],[0,0.9],[0.1,1],[0.2,1],[0.3,1],[0.4,1],[0.5,1],[0.6,1],[0.7,1],[0.8,1],[0.9,1],[1,0.1],[1,0.3],[1,0.5],[1,0.7],[1,0.9]];" parent="1" vertex="1">
          <mxGeometry x="-226" y="324.25" width="170" height="23" as="geometry" />
        </mxCell>
        <mxCell id="S2yTtaICxEiza2klLoan-111" value="&lt;u&gt;adapters:BodyFatPercentage&lt;/u&gt;" style="rounded=0;whiteSpace=wrap;html=1;snapToPoint=1;points=[[0.1,0],[0.2,0],[0.3,0],[0.4,0],[0.5,0],[0.6,0],[0.7,0],[0.8,0],[0.9,0],[0,0.1],[0,0.3],[0,0.5],[0,0.7],[0,0.9],[0.1,1],[0.2,1],[0.3,1],[0.4,1],[0.5,1],[0.6,1],[0.7,1],[0.8,1],[0.9,1],[1,0.1],[1,0.3],[1,0.5],[1,0.7],[1,0.9]];" parent="1" vertex="1">
          <mxGeometry x="-226" y="354.25" width="170" height="23" as="geometry" />
        </mxCell>
        <mxCell id="S2yTtaICxEiza2klLoan-112" value="&lt;u&gt;adapters:BodyMassIndex&lt;/u&gt;" style="rounded=0;whiteSpace=wrap;html=1;snapToPoint=1;points=[[0.1,0],[0.2,0],[0.3,0],[0.4,0],[0.5,0],[0.6,0],[0.7,0],[0.8,0],[0.9,0],[0,0.1],[0,0.3],[0,0.5],[0,0.7],[0,0.9],[0.1,1],[0.2,1],[0.3,1],[0.4,1],[0.5,1],[0.6,1],[0.7,1],[0.8,1],[0.9,1],[1,0.1],[1,0.3],[1,0.5],[1,0.7],[1,0.9]];" parent="1" vertex="1">
          <mxGeometry x="-10" y="124.25" width="200" height="23" as="geometry" />
        </mxCell>
        <mxCell id="S2yTtaICxEiza2klLoan-113" value="&lt;u&gt;adapters:BoneMineralContent&lt;/u&gt;" style="rounded=0;whiteSpace=wrap;html=1;snapToPoint=1;points=[[0.1,0],[0.2,0],[0.3,0],[0.4,0],[0.5,0],[0.6,0],[0.7,0],[0.8,0],[0.9,0],[0,0.1],[0,0.3],[0,0.5],[0,0.7],[0,0.9],[0.1,1],[0.2,1],[0.3,1],[0.4,1],[0.5,1],[0.6,1],[0.7,1],[0.8,1],[0.9,1],[1,0.1],[1,0.3],[1,0.5],[1,0.7],[1,0.9]];" parent="1" vertex="1">
          <mxGeometry x="-10" y="163.75" width="204" height="23" as="geometry" />
        </mxCell>
        <mxCell id="S2yTtaICxEiza2klLoan-114" value="&lt;u&gt;adapters:MuscleMass&lt;/u&gt;" style="rounded=0;whiteSpace=wrap;html=1;snapToPoint=1;points=[[0.1,0],[0.2,0],[0.3,0],[0.4,0],[0.5,0],[0.6,0],[0.7,0],[0.8,0],[0.9,0],[0,0.1],[0,0.3],[0,0.5],[0,0.7],[0,0.9],[0.1,1],[0.2,1],[0.3,1],[0.4,1],[0.5,1],[0.6,1],[0.7,1],[0.8,1],[0.9,1],[1,0.1],[1,0.3],[1,0.5],[1,0.7],[1,0.9]];" parent="1" vertex="1">
          <mxGeometry x="-10" y="202.75" width="200" height="23" as="geometry" />
        </mxCell>
        <mxCell id="S2yTtaICxEiza2klLoan-115" value="&lt;u&gt;adapters:Protein&lt;/u&gt;" style="rounded=0;whiteSpace=wrap;html=1;snapToPoint=1;points=[[0.1,0],[0.2,0],[0.3,0],[0.4,0],[0.5,0],[0.6,0],[0.7,0],[0.8,0],[0.9,0],[0,0.1],[0,0.3],[0,0.5],[0,0.7],[0,0.9],[0.1,1],[0.2,1],[0.3,1],[0.4,1],[0.5,1],[0.6,1],[0.7,1],[0.8,1],[0.9,1],[1,0.1],[1,0.3],[1,0.5],[1,0.7],[1,0.9]];" parent="1" vertex="1">
          <mxGeometry x="-10" y="234.75" width="200" height="23" as="geometry" />
        </mxCell>
        <mxCell id="S2yTtaICxEiza2klLoan-116" value="&lt;u&gt;adapters:SugarLevel&lt;/u&gt;" style="rounded=0;whiteSpace=wrap;html=1;snapToPoint=1;points=[[0.1,0],[0.2,0],[0.3,0],[0.4,0],[0.5,0],[0.6,0],[0.7,0],[0.8,0],[0.9,0],[0,0.1],[0,0.3],[0,0.5],[0,0.7],[0,0.9],[0.1,1],[0.2,1],[0.3,1],[0.4,1],[0.5,1],[0.6,1],[0.7,1],[0.8,1],[0.9,1],[1,0.1],[1,0.3],[1,0.5],[1,0.7],[1,0.9]];" parent="1" vertex="1">
          <mxGeometry x="-10" y="294" width="200" height="23" as="geometry" />
        </mxCell>
        <mxCell id="S2yTtaICxEiza2klLoan-117" value="&lt;u&gt;adapters:Pulse&lt;/u&gt;" style="rounded=0;whiteSpace=wrap;html=1;snapToPoint=1;points=[[0.1,0],[0.2,0],[0.3,0],[0.4,0],[0.5,0],[0.6,0],[0.7,0],[0.8,0],[0.9,0],[0,0.1],[0,0.3],[0,0.5],[0,0.7],[0,0.9],[0.1,1],[0.2,1],[0.3,1],[0.4,1],[0.5,1],[0.6,1],[0.7,1],[0.8,1],[0.9,1],[1,0.1],[1,0.3],[1,0.5],[1,0.7],[1,0.9]];" parent="1" vertex="1">
          <mxGeometry x="-10" y="264.25" width="200" height="23" as="geometry" />
        </mxCell>
        <mxCell id="S2yTtaICxEiza2klLoan-118" value="&lt;u&gt;adapters:TotalBodyWaterPercentage&lt;/u&gt;" style="rounded=0;whiteSpace=wrap;html=1;snapToPoint=1;points=[[0.1,0],[0.2,0],[0.3,0],[0.4,0],[0.5,0],[0.6,0],[0.7,0],[0.8,0],[0.9,0],[0,0.1],[0,0.3],[0,0.5],[0,0.7],[0,0.9],[0.1,1],[0.2,1],[0.3,1],[0.4,1],[0.5,1],[0.6,1],[0.7,1],[0.8,1],[0.9,1],[1,0.1],[1,0.3],[1,0.5],[1,0.7],[1,0.9]];" parent="1" vertex="1">
          <mxGeometry x="-10" y="324.25" width="200" height="23" as="geometry" />
        </mxCell>
        <mxCell id="S2yTtaICxEiza2klLoan-119" value="&lt;u&gt;adapters:VisceralFatRating&lt;/u&gt;" style="rounded=0;whiteSpace=wrap;html=1;snapToPoint=1;points=[[0.1,0],[0.2,0],[0.3,0],[0.4,0],[0.5,0],[0.6,0],[0.7,0],[0.8,0],[0.9,0],[0,0.1],[0,0.3],[0,0.5],[0,0.7],[0,0.9],[0.1,1],[0.2,1],[0.3,1],[0.4,1],[0.5,1],[0.6,1],[0.7,1],[0.8,1],[0.9,1],[1,0.1],[1,0.3],[1,0.5],[1,0.7],[1,0.9]];" parent="1" vertex="1">
          <mxGeometry x="-10" y="354.25" width="200" height="23" as="geometry" />
        </mxCell>
        <mxCell id="S2yTtaICxEiza2klLoan-120" value="" style="endArrow=open;html=1;fontColor=#000099;endFill=0;dashed=1;endSize=8;edgeStyle=orthogonalEdgeStyle;arcSize=0;exitX=0;exitY=0.5;exitDx=0;exitDy=0;entryX=0.5;entryY=1;entryDx=0;entryDy=0;" parent="1" source="S2yTtaICxEiza2klLoan-112" target="S2yTtaICxEiza2klLoan-4" edge="1">
          <mxGeometry width="50" height="50" relative="1" as="geometry">
            <mxPoint x="-17" y="172.25" as="sourcePoint" />
            <mxPoint x="-36" y="135.75" as="targetPoint" />
          </mxGeometry>
        </mxCell>
        <mxCell id="S2yTtaICxEiza2klLoan-121" value="" style="endArrow=open;html=1;fontColor=#000099;endFill=0;dashed=1;endSize=8;edgeStyle=orthogonalEdgeStyle;arcSize=0;exitX=1;exitY=0.5;exitDx=0;exitDy=0;entryX=0.5;entryY=1;entryDx=0;entryDy=0;" parent="1" source="S2yTtaICxEiza2klLoan-104" target="S2yTtaICxEiza2klLoan-4" edge="1">
          <mxGeometry width="50" height="50" relative="1" as="geometry">
            <mxPoint x="-56" y="153.75" as="sourcePoint" />
            <mxPoint x="-36" y="135.75" as="targetPoint" />
          </mxGeometry>
        </mxCell>
        <mxCell id="S2yTtaICxEiza2klLoan-123" value="" style="endArrow=open;html=1;fontColor=#000099;endFill=0;dashed=1;endSize=8;edgeStyle=orthogonalEdgeStyle;arcSize=0;exitX=0;exitY=0.5;exitDx=0;exitDy=0;entryX=0.5;entryY=1;entryDx=0;entryDy=0;" parent="1" source="S2yTtaICxEiza2klLoan-113" target="S2yTtaICxEiza2klLoan-4" edge="1">
          <mxGeometry width="50" height="50" relative="1" as="geometry">
            <mxPoint x="-46" y="215.6500000000001" as="sourcePoint" />
            <mxPoint x="-30" y="120" as="targetPoint" />
          </mxGeometry>
        </mxCell>
        <mxCell id="S2yTtaICxEiza2klLoan-136" value="adapters:SwitchStatus" style="rounded=0;whiteSpace=wrap;html=1;snapToPoint=1;points=[[0.1,0],[0.2,0],[0.3,0],[0.4,0],[0.5,0],[0.6,0],[0.7,0],[0.8,0],[0.9,0],[0,0.1],[0,0.3],[0,0.5],[0,0.7],[0,0.9],[0.1,1],[0.2,1],[0.3,1],[0.4,1],[0.5,1],[0.6,1],[0.7,1],[0.8,1],[0.9,1],[1,0.1],[1,0.3],[1,0.5],[1,0.7],[1,0.9]];fillColor=#D5E8D4;" parent="1" vertex="1">
          <mxGeometry x="-150" y="632.63" width="150" height="23" as="geometry" />
        </mxCell>
        <mxCell id="S2yTtaICxEiza2klLoan-137" value="adapters:Alert" style="rounded=0;whiteSpace=wrap;html=1;snapToPoint=1;points=[[0.1,0],[0.2,0],[0.3,0],[0.4,0],[0.5,0],[0.6,0],[0.7,0],[0.8,0],[0.9,0],[0,0.1],[0,0.3],[0,0.5],[0,0.7],[0,0.9],[0.1,1],[0.2,1],[0.3,1],[0.4,1],[0.5,1],[0.6,1],[0.7,1],[0.8,1],[0.9,1],[1,0.1],[1,0.3],[1,0.5],[1,0.7],[1,0.9]];fillColor=#D5E8D4;" parent="1" vertex="1">
          <mxGeometry x="-150" y="667.63" width="150" height="23" as="geometry" />
        </mxCell>
        <mxCell id="S2yTtaICxEiza2klLoan-138" value="adapters:StorageCapacity" style="rounded=0;whiteSpace=wrap;html=1;snapToPoint=1;points=[[0.1,0],[0.2,0],[0.3,0],[0.4,0],[0.5,0],[0.6,0],[0.7,0],[0.8,0],[0.9,0],[0,0.1],[0,0.3],[0,0.5],[0,0.7],[0,0.9],[0.1,1],[0.2,1],[0.3,1],[0.4,1],[0.5,1],[0.6,1],[0.7,1],[0.8,1],[0.9,1],[1,0.1],[1,0.3],[1,0.5],[1,0.7],[1,0.9]];fillColor=#D5E8D4;" parent="1" vertex="1">
          <mxGeometry x="-150" y="704.63" width="150" height="23" as="geometry" />
        </mxCell>
        <mxCell id="S2yTtaICxEiza2klLoan-139" value="adapters:Presence" style="rounded=0;whiteSpace=wrap;html=1;snapToPoint=1;points=[[0.1,0],[0.2,0],[0.3,0],[0.4,0],[0.5,0],[0.6,0],[0.7,0],[0.8,0],[0.9,0],[0,0.1],[0,0.3],[0,0.5],[0,0.7],[0,0.9],[0.1,1],[0.2,1],[0.3,1],[0.4,1],[0.5,1],[0.6,1],[0.7,1],[0.8,1],[0.9,1],[1,0.1],[1,0.3],[1,0.5],[1,0.7],[1,0.9]];fillColor=#D5E8D4;" parent="1" vertex="1">
          <mxGeometry x="-150" y="741.38" width="150" height="23" as="geometry" />
        </mxCell>
        <mxCell id="S2yTtaICxEiza2klLoan-140" style="edgeStyle=orthogonalEdgeStyle;rounded=0;orthogonalLoop=1;jettySize=auto;html=1;fontSize=11;endArrow=block;endFill=0;exitX=1;exitY=0.7;exitDx=0;exitDy=0;" parent="1" source="S2yTtaICxEiza2klLoan-136" edge="1">
          <mxGeometry relative="1" as="geometry">
            <mxPoint x="51.69999999999999" y="632.5799999999998" as="sourcePoint" />
            <mxPoint x="11" y="580.0000000000001" as="targetPoint" />
            <Array as="points">
              <mxPoint x="11" y="649" />
            </Array>
          </mxGeometry>
        </mxCell>
        <mxCell id="S2yTtaICxEiza2klLoan-141" style="edgeStyle=orthogonalEdgeStyle;rounded=0;orthogonalLoop=1;jettySize=auto;html=1;fontSize=11;endArrow=block;endFill=0;exitX=1;exitY=0.3;exitDx=0;exitDy=0;" parent="1" source="S2yTtaICxEiza2klLoan-137" edge="1">
          <mxGeometry relative="1" as="geometry">
            <mxPoint x="10" y="658.7299999999999" as="sourcePoint" />
            <mxPoint x="11" y="580.0000000000001" as="targetPoint" />
            <Array as="points">
              <mxPoint x="10" y="675" />
              <mxPoint x="10" y="624" />
              <mxPoint x="11" y="624" />
            </Array>
          </mxGeometry>
        </mxCell>
        <mxCell id="S2yTtaICxEiza2klLoan-142" style="edgeStyle=orthogonalEdgeStyle;rounded=0;orthogonalLoop=1;jettySize=auto;html=1;fontSize=11;endArrow=block;endFill=0;exitX=1;exitY=0.3;exitDx=0;exitDy=0;" parent="1" source="S2yTtaICxEiza2klLoan-138" edge="1">
          <mxGeometry relative="1" as="geometry">
            <mxPoint x="10" y="684.5300000000001" as="sourcePoint" />
            <mxPoint x="11" y="580.0000000000001" as="targetPoint" />
            <Array as="points">
              <mxPoint x="11" y="712" />
            </Array>
          </mxGeometry>
        </mxCell>
        <mxCell id="S2yTtaICxEiza2klLoan-143" style="edgeStyle=orthogonalEdgeStyle;rounded=0;orthogonalLoop=1;jettySize=auto;html=1;fontSize=11;endArrow=block;endFill=0;exitX=1;exitY=0.3;exitDx=0;exitDy=0;" parent="1" source="S2yTtaICxEiza2klLoan-139" edge="1">
          <mxGeometry relative="1" as="geometry">
            <mxPoint x="10" y="721.5300000000001" as="sourcePoint" />
            <mxPoint x="11" y="580.0000000000001" as="targetPoint" />
            <Array as="points">
              <mxPoint x="10" y="748" />
              <mxPoint x="10" y="661" />
              <mxPoint x="11" y="661" />
            </Array>
          </mxGeometry>
        </mxCell>
        <mxCell id="S2yTtaICxEiza2klLoan-144" value="adapters:Error" style="rounded=0;whiteSpace=wrap;html=1;snapToPoint=1;points=[[0.1,0],[0.2,0],[0.3,0],[0.4,0],[0.5,0],[0.6,0],[0.7,0],[0.8,0],[0.9,0],[0,0.1],[0,0.3],[0,0.5],[0,0.7],[0,0.9],[0.1,1],[0.2,1],[0.3,1],[0.4,1],[0.5,1],[0.6,1],[0.7,1],[0.8,1],[0.9,1],[1,0.1],[1,0.3],[1,0.5],[1,0.7],[1,0.9]];fillColor=#D5E8D4;" parent="1" vertex="1">
          <mxGeometry x="-150" y="775.88" width="150" height="23" as="geometry" />
        </mxCell>
        <mxCell id="S2yTtaICxEiza2klLoan-145" style="edgeStyle=orthogonalEdgeStyle;rounded=0;orthogonalLoop=1;jettySize=auto;html=1;fontSize=11;endArrow=block;endFill=0;exitX=1;exitY=0.3;exitDx=0;exitDy=0;" parent="1" source="S2yTtaICxEiza2klLoan-144" edge="1">
          <mxGeometry relative="1" as="geometry">
            <mxPoint x="10" y="758.2800000000001" as="sourcePoint" />
            <mxPoint x="11" y="580.0000000000001" as="targetPoint" />
            <Array as="points">
              <mxPoint x="11" y="783" />
            </Array>
          </mxGeometry>
        </mxCell>
        <mxCell id="S2yTtaICxEiza2klLoan-146" value="adapters:ActReason" style="rounded=0;whiteSpace=wrap;html=1;snapToPoint=1;points=[[0.1,0],[0.2,0],[0.3,0],[0.4,0],[0.5,0],[0.6,0],[0.7,0],[0.8,0],[0.9,0],[0,0.1],[0,0.3],[0,0.5],[0,0.7],[0,0.9],[0.1,1],[0.2,1],[0.3,1],[0.4,1],[0.5,1],[0.6,1],[0.7,1],[0.8,1],[0.9,1],[1,0.1],[1,0.3],[1,0.5],[1,0.7],[1,0.9]];fillColor=#D5E8D4;" parent="1" vertex="1">
          <mxGeometry x="-148.25" y="815.88" width="150" height="23" as="geometry" />
        </mxCell>
        <mxCell id="S2yTtaICxEiza2klLoan-147" style="edgeStyle=orthogonalEdgeStyle;rounded=0;orthogonalLoop=1;jettySize=auto;html=1;fontSize=11;endArrow=block;endFill=0;exitX=1;exitY=0.3;exitDx=0;exitDy=0;" parent="1" source="S2yTtaICxEiza2klLoan-146" edge="1">
          <mxGeometry relative="1" as="geometry">
            <mxPoint x="10" y="792.7800000000001" as="sourcePoint" />
            <mxPoint x="11" y="580.0000000000001" as="targetPoint" />
            <Array as="points">
              <mxPoint x="10" y="823" />
              <mxPoint x="10" y="698" />
              <mxPoint x="11" y="698" />
            </Array>
          </mxGeometry>
        </mxCell>
        <mxCell id="S2yTtaICxEiza2klLoan-148" value="&lt;u&gt;adapters:Battery&lt;/u&gt;" style="rounded=0;whiteSpace=wrap;html=1;snapToPoint=1;points=[[0.1,0],[0.2,0],[0.3,0],[0.4,0],[0.5,0],[0.6,0],[0.7,0],[0.8,0],[0.9,0],[0,0.1],[0,0.3],[0,0.5],[0,0.7],[0,0.9],[0.1,1],[0.2,1],[0.3,1],[0.4,1],[0.5,1],[0.6,1],[0.7,1],[0.8,1],[0.9,1],[1,0.1],[1,0.3],[1,0.5],[1,0.7],[1,0.9]];" parent="1" vertex="1">
          <mxGeometry x="-106.75" y="907.5" width="146" height="23" as="geometry" />
        </mxCell>
        <mxCell id="S2yTtaICxEiza2klLoan-149" value="&lt;u&gt;adapters:Button&lt;/u&gt;" style="rounded=0;whiteSpace=wrap;html=1;snapToPoint=1;points=[[0.1,0],[0.2,0],[0.3,0],[0.4,0],[0.5,0],[0.6,0],[0.7,0],[0.8,0],[0.9,0],[0,0.1],[0,0.3],[0,0.5],[0,0.7],[0,0.9],[0.1,1],[0.2,1],[0.3,1],[0.4,1],[0.5,1],[0.6,1],[0.7,1],[0.8,1],[0.9,1],[1,0.1],[1,0.3],[1,0.5],[1,0.7],[1,0.9]];" parent="1" vertex="1">
          <mxGeometry x="-106.75" y="943" width="146" height="23" as="geometry" />
        </mxCell>
        <mxCell id="S2yTtaICxEiza2klLoan-150" value="&lt;u&gt;adapters:Periodic&lt;/u&gt;" style="rounded=0;whiteSpace=wrap;html=1;snapToPoint=1;points=[[0.1,0],[0.2,0],[0.3,0],[0.4,0],[0.5,0],[0.6,0],[0.7,0],[0.8,0],[0.9,0],[0,0.1],[0,0.3],[0,0.5],[0,0.7],[0,0.9],[0.1,1],[0.2,1],[0.3,1],[0.4,1],[0.5,1],[0.6,1],[0.7,1],[0.8,1],[0.9,1],[1,0.1],[1,0.3],[1,0.5],[1,0.7],[1,0.9]];" parent="1" vertex="1">
          <mxGeometry x="-106.75" y="975.5" width="146" height="23" as="geometry" />
        </mxCell>
        <mxCell id="S2yTtaICxEiza2klLoan-151" value="&lt;u&gt;adapters:Alarm&lt;/u&gt;" style="rounded=0;whiteSpace=wrap;html=1;snapToPoint=1;points=[[0.1,0],[0.2,0],[0.3,0],[0.4,0],[0.5,0],[0.6,0],[0.7,0],[0.8,0],[0.9,0],[0,0.1],[0,0.3],[0,0.5],[0,0.7],[0,0.9],[0.1,1],[0.2,1],[0.3,1],[0.4,1],[0.5,1],[0.6,1],[0.7,1],[0.8,1],[0.9,1],[1,0.1],[1,0.3],[1,0.5],[1,0.7],[1,0.9]];" parent="1" vertex="1">
          <mxGeometry x="-106.75" y="1005.5000000000001" width="146" height="23" as="geometry" />
        </mxCell>
        <mxCell id="S2yTtaICxEiza2klLoan-152" value="&lt;u&gt;adapters:PowerOn&lt;/u&gt;" style="rounded=0;whiteSpace=wrap;html=1;snapToPoint=1;points=[[0.1,0],[0.2,0],[0.3,0],[0.4,0],[0.5,0],[0.6,0],[0.7,0],[0.8,0],[0.9,0],[0,0.1],[0,0.3],[0,0.5],[0,0.7],[0,0.9],[0.1,1],[0.2,1],[0.3,1],[0.4,1],[0.5,1],[0.6,1],[0.7,1],[0.8,1],[0.9,1],[1,0.1],[1,0.3],[1,0.5],[1,0.7],[1,0.9]];" parent="1" vertex="1">
          <mxGeometry x="-106.75" y="1035.5" width="146" height="23" as="geometry" />
        </mxCell>
        <mxCell id="S2yTtaICxEiza2klLoan-153" value="&lt;u&gt;adapters:Sensor&lt;/u&gt;" style="rounded=0;whiteSpace=wrap;html=1;snapToPoint=1;points=[[0.1,0],[0.2,0],[0.3,0],[0.4,0],[0.5,0],[0.6,0],[0.7,0],[0.8,0],[0.9,0],[0,0.1],[0,0.3],[0,0.5],[0,0.7],[0,0.9],[0.1,1],[0.2,1],[0.3,1],[0.4,1],[0.5,1],[0.6,1],[0.7,1],[0.8,1],[0.9,1],[1,0.1],[1,0.3],[1,0.5],[1,0.7],[1,0.9]];" parent="1" vertex="1">
          <mxGeometry x="-106.75" y="1061.5" width="146" height="23" as="geometry" />
        </mxCell>
        <mxCell id="S2yTtaICxEiza2klLoan-154" value="" style="endArrow=open;html=1;fontColor=#000099;endFill=0;dashed=1;endSize=8;exitX=0;exitY=0.3;exitDx=0;exitDy=0;edgeStyle=orthogonalEdgeStyle;arcSize=0;" parent="1" source="S2yTtaICxEiza2klLoan-148" target="S2yTtaICxEiza2klLoan-146" edge="1">
          <mxGeometry width="50" height="50" relative="1" as="geometry">
            <mxPoint x="-25" y="865.5" as="sourcePoint" />
            <mxPoint x="-160" y="851.0000000000001" as="targetPoint" />
            <Array as="points">
              <mxPoint x="-130" y="914" />
            </Array>
          </mxGeometry>
        </mxCell>
        <mxCell id="S2yTtaICxEiza2klLoan-155" value="" style="endArrow=open;html=1;fontColor=#000099;endFill=0;dashed=1;endSize=8;exitX=0;exitY=0.5;exitDx=0;exitDy=0;edgeStyle=orthogonalEdgeStyle;arcSize=0;" parent="1" source="S2yTtaICxEiza2klLoan-149" target="S2yTtaICxEiza2klLoan-146" edge="1">
          <mxGeometry width="50" height="50" relative="1" as="geometry">
            <mxPoint x="-190" y="948" as="sourcePoint" />
            <mxPoint x="-159.75" y="889.12" as="targetPoint" />
            <Array as="points">
              <mxPoint x="-130" y="955" />
            </Array>
          </mxGeometry>
        </mxCell>
        <mxCell id="S2yTtaICxEiza2klLoan-156" value="" style="endArrow=open;html=1;fontColor=#000099;endFill=0;dashed=1;endSize=8;exitX=0;exitY=0.5;exitDx=0;exitDy=0;edgeStyle=orthogonalEdgeStyle;arcSize=0;" parent="1" source="S2yTtaICxEiza2klLoan-150" target="S2yTtaICxEiza2klLoan-146" edge="1">
          <mxGeometry width="50" height="50" relative="1" as="geometry">
            <mxPoint x="-204.75" y="985" as="sourcePoint" />
            <mxPoint x="-159.75" y="889.12" as="targetPoint" />
            <Array as="points">
              <mxPoint x="-130" y="987" />
            </Array>
          </mxGeometry>
        </mxCell>
        <mxCell id="S2yTtaICxEiza2klLoan-157" value="" style="endArrow=open;html=1;fontColor=#000099;endFill=0;dashed=1;endSize=8;edgeStyle=orthogonalEdgeStyle;arcSize=0;entryX=0.1;entryY=1;entryDx=0;entryDy=0;" parent="1" source="S2yTtaICxEiza2klLoan-152" target="S2yTtaICxEiza2klLoan-146" edge="1">
          <mxGeometry width="50" height="50" relative="1" as="geometry">
            <mxPoint x="-123.5" y="1046.9" as="sourcePoint" />
            <mxPoint x="-159.75" y="889.12" as="targetPoint" />
            <Array as="points">
              <mxPoint x="-130" y="1047" />
              <mxPoint x="-130" y="889" />
              <mxPoint x="-133" y="889" />
            </Array>
          </mxGeometry>
        </mxCell>
        <mxCell id="S2yTtaICxEiza2klLoan-160" value="adapters:SoilMoisture" style="rounded=0;whiteSpace=wrap;html=1;fillColor=#d5e8d4;strokeColor=#82b366;" parent="1" vertex="1">
          <mxGeometry x="-541.95" y="100.5" width="141" height="30" as="geometry" />
        </mxCell>
        <mxCell id="S2yTtaICxEiza2klLoan-161" value="adapters:AccumulatedPercipitation" style="rounded=0;whiteSpace=wrap;html=1;fillColor=#d5e8d4;strokeColor=#82b366;" parent="1" vertex="1">
          <mxGeometry x="-555.5" y="140.5" width="191" height="30" as="geometry" />
        </mxCell>
        <mxCell id="S2yTtaICxEiza2klLoan-162" value="adapters:Motion" style="rounded=0;whiteSpace=wrap;html=1;fillColor=#d5e8d4;strokeColor=#82b366;" parent="1" vertex="1">
          <mxGeometry x="-550" y="198" width="180" height="30" as="geometry" />
        </mxCell>
        <mxCell id="S2yTtaICxEiza2klLoan-163" value="&lt;u&gt;adapters:Motion&lt;/u&gt;" style="rounded=0;whiteSpace=wrap;html=1;snapToPoint=1;points=[[0.1,0],[0.2,0],[0.3,0],[0.4,0],[0.5,0],[0.6,0],[0.7,0],[0.8,0],[0.9,0],[0,0.1],[0,0.3],[0,0.5],[0,0.7],[0,0.9],[0.1,1],[0.2,1],[0.3,1],[0.4,1],[0.5,1],[0.6,1],[0.7,1],[0.8,1],[0.9,1],[1,0.1],[1,0.3],[1,0.5],[1,0.7],[1,0.9]];" parent="1" vertex="1">
          <mxGeometry x="-460" y="250.5" width="200" height="23" as="geometry" />
        </mxCell>
        <mxCell id="S2yTtaICxEiza2klLoan-164" value="&lt;u&gt;adapters:Vibration&lt;/u&gt;" style="rounded=0;whiteSpace=wrap;html=1;snapToPoint=1;points=[[0.1,0],[0.2,0],[0.3,0],[0.4,0],[0.5,0],[0.6,0],[0.7,0],[0.8,0],[0.9,0],[0,0.1],[0,0.3],[0,0.5],[0,0.7],[0,0.9],[0.1,1],[0.2,1],[0.3,1],[0.4,1],[0.5,1],[0.6,1],[0.7,1],[0.8,1],[0.9,1],[1,0.1],[1,0.3],[1,0.5],[1,0.7],[1,0.9]];" parent="1" vertex="1">
          <mxGeometry x="-460" y="291" width="200" height="23" as="geometry" />
        </mxCell>
        <mxCell id="S2yTtaICxEiza2klLoan-165" value="&lt;u&gt;adapters:AverageMouvementTime&lt;/u&gt;" style="rounded=0;whiteSpace=wrap;html=1;snapToPoint=1;points=[[0.1,0],[0.2,0],[0.3,0],[0.4,0],[0.5,0],[0.6,0],[0.7,0],[0.8,0],[0.9,0],[0,0.1],[0,0.3],[0,0.5],[0,0.7],[0,0.9],[0.1,1],[0.2,1],[0.3,1],[0.4,1],[0.5,1],[0.6,1],[0.7,1],[0.8,1],[0.9,1],[1,0.1],[1,0.3],[1,0.5],[1,0.7],[1,0.9]];" parent="1" vertex="1">
          <mxGeometry x="-460" y="333" width="200" height="23" as="geometry" />
        </mxCell>
        <mxCell id="S2yTtaICxEiza2klLoan-166" value="&lt;u&gt;adapters:AverageMouvementShare&lt;/u&gt;" style="rounded=0;whiteSpace=wrap;html=1;snapToPoint=1;points=[[0.1,0],[0.2,0],[0.3,0],[0.4,0],[0.5,0],[0.6,0],[0.7,0],[0.8,0],[0.9,0],[0,0.1],[0,0.3],[0,0.5],[0,0.7],[0,0.9],[0.1,1],[0.2,1],[0.3,1],[0.4,1],[0.5,1],[0.6,1],[0.7,1],[0.8,1],[0.9,1],[1,0.1],[1,0.3],[1,0.5],[1,0.7],[1,0.9]];" parent="1" vertex="1">
          <mxGeometry x="-460" y="375.75" width="200" height="23" as="geometry" />
        </mxCell>
        <mxCell id="S2yTtaICxEiza2klLoan-167" value="&lt;u&gt;adapters:Steps&lt;/u&gt;" style="rounded=0;whiteSpace=wrap;html=1;snapToPoint=1;points=[[0.1,0],[0.2,0],[0.3,0],[0.4,0],[0.5,0],[0.6,0],[0.7,0],[0.8,0],[0.9,0],[0,0.1],[0,0.3],[0,0.5],[0,0.7],[0,0.9],[0.1,1],[0.2,1],[0.3,1],[0.4,1],[0.5,1],[0.6,1],[0.7,1],[0.8,1],[0.9,1],[1,0.1],[1,0.3],[1,0.5],[1,0.7],[1,0.9]];" parent="1" vertex="1">
          <mxGeometry x="-460" y="418" width="200" height="23" as="geometry" />
        </mxCell>
        <mxCell id="S2yTtaICxEiza2klLoan-168" value="&lt;u&gt;adapters:DistanceWalked&lt;/u&gt;" style="rounded=0;whiteSpace=wrap;html=1;snapToPoint=1;points=[[0.1,0],[0.2,0],[0.3,0],[0.4,0],[0.5,0],[0.6,0],[0.7,0],[0.8,0],[0.9,0],[0,0.1],[0,0.3],[0,0.5],[0,0.7],[0,0.9],[0.1,1],[0.2,1],[0.3,1],[0.4,1],[0.5,1],[0.6,1],[0.7,1],[0.8,1],[0.9,1],[1,0.1],[1,0.3],[1,0.5],[1,0.7],[1,0.9]];" parent="1" vertex="1">
          <mxGeometry x="-460" y="458" width="200" height="23" as="geometry" />
        </mxCell>
        <mxCell id="S2yTtaICxEiza2klLoan-169" value="" style="endArrow=open;html=1;fontColor=#000099;endFill=0;dashed=1;endSize=8;edgeStyle=orthogonalEdgeStyle;arcSize=0;" parent="1" source="S2yTtaICxEiza2klLoan-163" target="S2yTtaICxEiza2klLoan-162" edge="1">
          <mxGeometry width="50" height="50" relative="1" as="geometry">
            <mxPoint x="-480" y="261.5" as="sourcePoint" />
            <mxPoint x="-500" y="221" as="targetPoint" />
            <Array as="points">
              <mxPoint x="-510" y="262" />
            </Array>
          </mxGeometry>
        </mxCell>
        <mxCell id="S2yTtaICxEiza2klLoan-170" value="" style="endArrow=open;html=1;fontColor=#000099;endFill=0;dashed=1;endSize=8;edgeStyle=orthogonalEdgeStyle;arcSize=0;exitX=0;exitY=0.5;exitDx=0;exitDy=0;" parent="1" source="S2yTtaICxEiza2klLoan-164" target="S2yTtaICxEiza2klLoan-162" edge="1">
          <mxGeometry width="50" height="50" relative="1" as="geometry">
            <mxPoint x="-465.75" y="307.5" as="sourcePoint" />
            <mxPoint x="-515.75" y="273.5" as="targetPoint" />
            <Array as="points">
              <mxPoint x="-460" y="308" />
              <mxPoint x="-510" y="308" />
            </Array>
          </mxGeometry>
        </mxCell>
        <mxCell id="S2yTtaICxEiza2klLoan-171" value="" style="endArrow=open;html=1;fontColor=#000099;endFill=0;dashed=1;endSize=8;edgeStyle=orthogonalEdgeStyle;arcSize=0;exitX=0;exitY=0.3;exitDx=0;exitDy=0;" parent="1" source="S2yTtaICxEiza2klLoan-165" target="S2yTtaICxEiza2klLoan-162" edge="1">
          <mxGeometry width="50" height="50" relative="1" as="geometry">
            <mxPoint x="-470" y="339.5" as="sourcePoint" />
            <mxPoint x="-520" y="265" as="targetPoint" />
            <Array as="points">
              <mxPoint x="-470" y="340" />
              <mxPoint x="-470" y="345" />
              <mxPoint x="-510" y="345" />
            </Array>
          </mxGeometry>
        </mxCell>
        <mxCell id="S2yTtaICxEiza2klLoan-172" value="" style="endArrow=open;html=1;fontColor=#000099;endFill=0;dashed=1;endSize=8;edgeStyle=orthogonalEdgeStyle;arcSize=0;" parent="1" source="S2yTtaICxEiza2klLoan-166" target="S2yTtaICxEiza2klLoan-162" edge="1">
          <mxGeometry width="50" height="50" relative="1" as="geometry">
            <mxPoint x="-470" y="390" as="sourcePoint" />
            <mxPoint x="-520" y="356" as="targetPoint" />
            <Array as="points">
              <mxPoint x="-510" y="390" />
            </Array>
          </mxGeometry>
        </mxCell>
        <mxCell id="S2yTtaICxEiza2klLoan-173" value="" style="endArrow=open;html=1;fontColor=#000099;endFill=0;dashed=1;endSize=8;edgeStyle=orthogonalEdgeStyle;arcSize=0;" parent="1" source="S2yTtaICxEiza2klLoan-167" target="S2yTtaICxEiza2klLoan-162" edge="1">
          <mxGeometry width="50" height="50" relative="1" as="geometry">
            <mxPoint x="-465.75" y="429" as="sourcePoint" />
            <mxPoint x="-515.75" y="265" as="targetPoint" />
            <Array as="points">
              <mxPoint x="-510" y="427" />
            </Array>
          </mxGeometry>
        </mxCell>
        <mxCell id="S2yTtaICxEiza2klLoan-174" value="" style="endArrow=open;html=1;fontColor=#000099;endFill=0;dashed=1;endSize=8;edgeStyle=orthogonalEdgeStyle;arcSize=0;" parent="1" source="S2yTtaICxEiza2klLoan-168" target="S2yTtaICxEiza2klLoan-162" edge="1">
          <mxGeometry width="50" height="50" relative="1" as="geometry">
            <mxPoint x="-470" y="469.5" as="sourcePoint" />
            <mxPoint x="-520" y="435.5" as="targetPoint" />
            <Array as="points">
              <mxPoint x="-510" y="470" />
            </Array>
          </mxGeometry>
        </mxCell>
        <mxCell id="S2yTtaICxEiza2klLoan-213" style="edgeStyle=orthogonalEdgeStyle;rounded=0;orthogonalLoop=1;jettySize=auto;html=1;fontSize=11;endArrow=block;endFill=0;" parent="1" source="S2yTtaICxEiza2klLoan-3" target="S2yTtaICxEiza2klLoan-1" edge="1">
          <mxGeometry relative="1" as="geometry">
            <mxPoint x="690" y="97.5" as="sourcePoint" />
            <mxPoint x="337" y="50" as="targetPoint" />
            <Array as="points">
              <mxPoint x="554" y="60" />
              <mxPoint x="327" y="60" />
            </Array>
          </mxGeometry>
        </mxCell>
        <mxCell id="S2yTtaICxEiza2klLoan-215" style="edgeStyle=orthogonalEdgeStyle;rounded=0;orthogonalLoop=1;jettySize=auto;html=1;fontSize=11;endArrow=block;endFill=0;" parent="1" source="S2yTtaICxEiza2klLoan-7" target="S2yTtaICxEiza2klLoan-1" edge="1">
          <mxGeometry relative="1" as="geometry">
            <mxPoint x="327" y="80" as="sourcePoint" />
            <mxPoint x="327" y="40" as="targetPoint" />
            <Array as="points">
              <mxPoint x="327" y="70" />
              <mxPoint x="327" y="70" />
            </Array>
          </mxGeometry>
        </mxCell>
        <mxCell id="S2yTtaICxEiza2klLoan-216" style="edgeStyle=orthogonalEdgeStyle;rounded=0;orthogonalLoop=1;jettySize=auto;html=1;fontSize=11;endArrow=block;endFill=0;" parent="1" source="S2yTtaICxEiza2klLoan-4" target="S2yTtaICxEiza2klLoan-1" edge="1">
          <mxGeometry relative="1" as="geometry">
            <mxPoint x="233" y="50" as="sourcePoint" />
            <mxPoint x="-120" y="2.5" as="targetPoint" />
            <Array as="points">
              <mxPoint y="60" />
              <mxPoint x="327" y="60" />
            </Array>
          </mxGeometry>
        </mxCell>
        <mxCell id="S2yTtaICxEiza2klLoan-218" style="edgeStyle=orthogonalEdgeStyle;rounded=0;orthogonalLoop=1;jettySize=auto;html=1;fontSize=11;endArrow=block;endFill=0;entryX=0.5;entryY=1;entryDx=0;entryDy=0;" parent="1" source="S2yTtaICxEiza2klLoan-160" target="S2yTtaICxEiza2klLoan-1" edge="1">
          <mxGeometry relative="1" as="geometry">
            <mxPoint x="-478.5" y="90" as="sourcePoint" />
            <mxPoint x="-241.5" y="50" as="targetPoint" />
            <Array as="points">
              <mxPoint x="-478" y="60" />
              <mxPoint x="327" y="60" />
            </Array>
          </mxGeometry>
        </mxCell>
        <mxCell id="S2yTtaICxEiza2klLoan-219" value="adapters:PersonCounter" style="rounded=0;whiteSpace=wrap;html=1;fillColor=#d5e8d4;strokeColor=#82b366;" parent="1" vertex="1">
          <mxGeometry x="-400.95000000000016" y="656.25" width="180" height="30" as="geometry" />
        </mxCell>
        <mxCell id="S2yTtaICxEiza2klLoan-221" value="&lt;u&gt;adapters:HourlyPersonCounter&lt;/u&gt;" style="rounded=0;whiteSpace=wrap;html=1;snapToPoint=1;points=[[0.1,0],[0.2,0],[0.3,0],[0.4,0],[0.5,0],[0.6,0],[0.7,0],[0.8,0],[0.9,0],[0,0.1],[0,0.3],[0,0.5],[0,0.7],[0,0.9],[0.1,1],[0.2,1],[0.3,1],[0.4,1],[0.5,1],[0.6,1],[0.7,1],[0.8,1],[0.9,1],[1,0.1],[1,0.3],[1,0.5],[1,0.7],[1,0.9]];" parent="1" vertex="1">
          <mxGeometry x="-395.95000000000016" y="736.25" width="170" height="23" as="geometry" />
        </mxCell>
        <mxCell id="S2yTtaICxEiza2klLoan-222" value="adapters:GeneratorCounter" style="rounded=0;whiteSpace=wrap;html=1;fillColor=#d5e8d4;strokeColor=#82b366;" parent="1" vertex="1">
          <mxGeometry x="-400.95000000000016" y="613.25" width="180" height="30" as="geometry" />
        </mxCell>
        <mxCell id="S2yTtaICxEiza2klLoan-242" style="edgeStyle=orthogonalEdgeStyle;rounded=0;orthogonalLoop=1;jettySize=auto;html=1;fontSize=11;endArrow=block;endFill=0;exitX=0.044;exitY=0.992;exitDx=0;exitDy=0;exitPerimeter=0;" parent="1" source="S2yTtaICxEiza2klLoan-222" target="S2yTtaICxEiza2klLoan-5" edge="1">
          <mxGeometry relative="1" as="geometry">
            <mxPoint x="-662" y="637.75" as="sourcePoint" />
            <mxPoint x="-425" y="597.75" as="targetPoint" />
            <Array as="points">
              <mxPoint x="-425" y="643" />
            </Array>
          </mxGeometry>
        </mxCell>
        <mxCell id="S2yTtaICxEiza2klLoan-243" style="edgeStyle=orthogonalEdgeStyle;rounded=0;orthogonalLoop=1;jettySize=auto;html=1;fontSize=11;endArrow=block;endFill=0;" parent="1" source="S2yTtaICxEiza2klLoan-219" target="S2yTtaICxEiza2klLoan-5" edge="1">
          <mxGeometry relative="1" as="geometry">
            <mxPoint x="-393.0300000000002" y="669.01" as="sourcePoint" />
            <mxPoint x="-425" y="618.25" as="targetPoint" />
            <Array as="points">
              <mxPoint x="-425" y="669" />
            </Array>
          </mxGeometry>
        </mxCell>
        <mxCell id="S2yTtaICxEiza2klLoan-245" value="" style="endArrow=open;html=1;fontColor=#000099;endFill=0;dashed=1;endSize=8;edgeStyle=orthogonalEdgeStyle;arcSize=0;" parent="1" source="S2yTtaICxEiza2klLoan-221" target="S2yTtaICxEiza2klLoan-219" edge="1">
          <mxGeometry width="50" height="50" relative="1" as="geometry">
            <mxPoint x="-310" y="720.6499999999999" as="sourcePoint" />
            <mxPoint x="-340" y="656.3" as="targetPoint" />
            <Array as="points">
              <mxPoint x="-311" y="736" />
            </Array>
          </mxGeometry>
        </mxCell>
        <mxCell id="S2yTtaICxEiza2klLoan-246" style="edgeStyle=orthogonalEdgeStyle;rounded=0;orthogonalLoop=1;jettySize=auto;html=1;fontSize=11;endArrow=block;endFill=0;exitX=0;exitY=0.75;exitDx=0;exitDy=0;" parent="1" source="S2yTtaICxEiza2klLoan-161" target="S2yTtaICxEiza2klLoan-1" edge="1">
          <mxGeometry relative="1" as="geometry">
            <mxPoint x="-600" y="145.75" as="sourcePoint" />
            <mxPoint x="205" y="85.25" as="targetPoint" />
            <Array as="points">
              <mxPoint x="-600" y="163" />
              <mxPoint x="-600" y="60" />
              <mxPoint x="327" y="60" />
            </Array>
          </mxGeometry>
        </mxCell>
        <mxCell id="S2yTtaICxEiza2klLoan-247" style="edgeStyle=orthogonalEdgeStyle;rounded=0;orthogonalLoop=1;jettySize=auto;html=1;fontSize=11;endArrow=block;endFill=0;" parent="1" source="S2yTtaICxEiza2klLoan-162" target="S2yTtaICxEiza2klLoan-1" edge="1">
          <mxGeometry relative="1" as="geometry">
            <mxPoint x="-555.5" y="213.5" as="sourcePoint" />
            <mxPoint x="327" y="90.5" as="targetPoint" />
            <Array as="points">
              <mxPoint x="-600" y="213" />
              <mxPoint x="-600" y="60" />
              <mxPoint x="327" y="60" />
            </Array>
          </mxGeometry>
        </mxCell>
        <mxCell id="S2yTtaICxEiza2klLoan-248" style="edgeStyle=orthogonalEdgeStyle;rounded=0;orthogonalLoop=1;jettySize=auto;html=1;fontSize=11;endArrow=block;endFill=0;exitX=0;exitY=0.5;exitDx=0;exitDy=0;" parent="1" source="S2yTtaICxEiza2klLoan-5" target="S2yTtaICxEiza2klLoan-1" edge="1">
          <mxGeometry relative="1" as="geometry">
            <mxPoint x="-555.5" y="512" as="sourcePoint" />
            <mxPoint x="327" y="389" as="targetPoint" />
            <Array as="points">
              <mxPoint x="-527" y="580" />
              <mxPoint x="-600" y="580" />
              <mxPoint x="-600" y="60" />
              <mxPoint x="327" y="60" />
            </Array>
          </mxGeometry>
        </mxCell>
        <mxCell id="S2yTtaICxEiza2klLoan-256" style="edgeStyle=orthogonalEdgeStyle;rounded=0;orthogonalLoop=1;jettySize=auto;html=1;fontSize=11;endArrow=block;endFill=0;exitX=0;exitY=0.25;exitDx=0;exitDy=0;" parent="1" source="S2yTtaICxEiza2klLoan-6" target="S2yTtaICxEiza2klLoan-1" edge="1">
          <mxGeometry relative="1" as="geometry">
            <mxPoint x="-507.1300000000001" y="537.25" as="sourcePoint" />
            <mxPoint x="347" as="targetPoint" />
            <Array as="points">
              <mxPoint x="-70" y="510" />
              <mxPoint x="-600" y="510" />
              <mxPoint x="-600" y="60" />
              <mxPoint x="327" y="60" />
            </Array>
          </mxGeometry>
        </mxCell>
        <mxCell id="S2yTtaICxEiza2klLoan-257" value="adapters:LightProperty" style="rounded=0;whiteSpace=wrap;html=1;fillColor=#d5e8d4;strokeColor=#82b366;" parent="1" vertex="1">
          <mxGeometry x="-517.12" y="772" width="127" height="30" as="geometry" />
        </mxCell>
        <mxCell id="S2yTtaICxEiza2klLoan-258" value="adapters:LuminusFlux" style="rounded=0;whiteSpace=wrap;html=1;fillColor=#d5e8d4;strokeColor=#82b366;" parent="1" vertex="1">
          <mxGeometry x="-555.5" y="851" width="127" height="30" as="geometry" />
        </mxCell>
        <mxCell id="S2yTtaICxEiza2klLoan-259" value="" style="endArrow=open;html=1;fontColor=#000099;endFill=0;dashed=1;endSize=8;edgeStyle=orthogonalEdgeStyle;arcSize=0;" parent="1" source="S2yTtaICxEiza2klLoan-261" target="S2yTtaICxEiza2klLoan-258" edge="1">
          <mxGeometry width="50" height="50" relative="1" as="geometry">
            <mxPoint x="-601.57" y="974.25" as="sourcePoint" />
            <mxPoint x="-427.37" y="878.75" as="targetPoint" />
            <Array as="points">
              <mxPoint x="-378" y="879" />
              <mxPoint x="-378" y="866" />
            </Array>
          </mxGeometry>
        </mxCell>
        <mxCell id="S2yTtaICxEiza2klLoan-260" style="edgeStyle=orthogonalEdgeStyle;rounded=0;orthogonalLoop=1;jettySize=auto;html=1;fontSize=11;endArrow=block;endFill=0;" parent="1" source="S2yTtaICxEiza2klLoan-258" target="S2yTtaICxEiza2klLoan-257" edge="1">
          <mxGeometry relative="1" as="geometry">
            <mxPoint x="-453.87" y="863.75" as="sourcePoint" />
            <mxPoint x="-518.12" y="875.5" as="targetPoint" />
            <Array as="points">
              <mxPoint x="-492" y="827" />
              <mxPoint x="-490" y="827" />
            </Array>
          </mxGeometry>
        </mxCell>
        <mxCell id="S2yTtaICxEiza2klLoan-261" value="&lt;u&gt;adapters:Illuminance&lt;/u&gt;" style="rounded=0;whiteSpace=wrap;html=1;snapToPoint=1;points=[[0.1,0],[0.2,0],[0.3,0],[0.4,0],[0.5,0],[0.6,0],[0.7,0],[0.8,0],[0.9,0],[0,0.1],[0,0.3],[0,0.5],[0,0.7],[0,0.9],[0.1,1],[0.2,1],[0.3,1],[0.4,1],[0.5,1],[0.6,1],[0.7,1],[0.8,1],[0.9,1],[1,0.1],[1,0.3],[1,0.5],[1,0.7],[1,0.9]];" parent="1" vertex="1">
          <mxGeometry x="-328.87000000000006" y="863.75" width="126" height="23" as="geometry" />
        </mxCell>
        <mxCell id="S2yTtaICxEiza2klLoan-262" value="&lt;u&gt;adapters:LightColor&lt;/u&gt;" style="rounded=0;whiteSpace=wrap;html=1;snapToPoint=1;points=[[0.1,0],[0.2,0],[0.3,0],[0.4,0],[0.5,0],[0.6,0],[0.7,0],[0.8,0],[0.9,0],[0,0.1],[0,0.3],[0,0.5],[0,0.7],[0,0.9],[0.1,1],[0.2,1],[0.3,1],[0.4,1],[0.5,1],[0.6,1],[0.7,1],[0.8,1],[0.9,1],[1,0.1],[1,0.3],[1,0.5],[1,0.7],[1,0.9]];" parent="1" vertex="1">
          <mxGeometry x="-328.87000000000006" y="796.51" width="126" height="23" as="geometry" />
        </mxCell>
        <mxCell id="S2yTtaICxEiza2klLoan-263" value="" style="endArrow=open;html=1;fontColor=#000099;endFill=0;dashed=1;endSize=8;edgeStyle=orthogonalEdgeStyle;arcSize=0;" parent="1" source="S2yTtaICxEiza2klLoan-262" target="S2yTtaICxEiza2klLoan-257" edge="1">
          <mxGeometry width="50" height="50" relative="1" as="geometry">
            <mxPoint x="-384.8200000000007" y="946.8800000000001" as="sourcePoint" />
            <mxPoint x="-427.57000000000005" y="898" as="targetPoint" />
            <Array as="points">
              <mxPoint x="-265.87" y="832.75" />
              <mxPoint x="-427.87" y="832.75" />
            </Array>
          </mxGeometry>
        </mxCell>
        <mxCell id="S2yTtaICxEiza2klLoan-264" style="edgeStyle=orthogonalEdgeStyle;rounded=0;orthogonalLoop=1;jettySize=auto;html=1;fontSize=11;endArrow=block;endFill=0;" parent="1" source="S2yTtaICxEiza2klLoan-257" target="S2yTtaICxEiza2klLoan-1" edge="1">
          <mxGeometry relative="1" as="geometry">
            <mxPoint x="-527.1300000000001" y="781.63" as="sourcePoint" />
            <mxPoint x="327" y="244.38" as="targetPoint" />
            <Array as="points">
              <mxPoint x="-600" y="784" />
              <mxPoint x="-600" y="60" />
              <mxPoint x="327" y="60" />
            </Array>
          </mxGeometry>
        </mxCell>
        <mxCell id="S2yTtaICxEiza2klLoan-265" value="&lt;u&gt;adapters:NoiseLevel&lt;/u&gt;" style="rounded=0;whiteSpace=wrap;html=1;snapToPoint=1;points=[[0.1,0],[0.2,0],[0.3,0],[0.4,0],[0.5,0],[0.6,0],[0.7,0],[0.8,0],[0.9,0],[0,0.1],[0,0.3],[0,0.5],[0,0.7],[0,0.9],[0.1,1],[0.2,1],[0.3,1],[0.4,1],[0.5,1],[0.6,1],[0.7,1],[0.8,1],[0.9,1],[1,0.1],[1,0.3],[1,0.5],[1,0.7],[1,0.9]];" parent="1" vertex="1">
          <mxGeometry x="-322.87" y="911.76" width="120" height="23" as="geometry" />
        </mxCell>
        <mxCell id="S2yTtaICxEiza2klLoan-266" value="adapters:Sound" style="rounded=0;whiteSpace=wrap;html=1;fillColor=#d5e8d4;strokeColor=#82b366;" parent="1" vertex="1">
          <mxGeometry x="-540.95" y="896.75" width="127" height="30" as="geometry" />
        </mxCell>
        <mxCell id="S2yTtaICxEiza2klLoan-267" value="" style="endArrow=open;html=1;fontColor=#000099;endFill=0;dashed=1;endSize=8;edgeStyle=orthogonalEdgeStyle;arcSize=0;" parent="1" source="S2yTtaICxEiza2klLoan-265" target="S2yTtaICxEiza2klLoan-266" edge="1">
          <mxGeometry width="50" height="50" relative="1" as="geometry">
            <mxPoint x="-325.5" y="925.25" as="sourcePoint" />
            <mxPoint x="-425" y="911.25" as="targetPoint" />
            <Array as="points">
              <mxPoint x="-325" y="923" />
              <mxPoint x="-376" y="924" />
              <mxPoint x="-376" y="911" />
            </Array>
          </mxGeometry>
        </mxCell>
        <mxCell id="S2yTtaICxEiza2klLoan-268" style="edgeStyle=orthogonalEdgeStyle;rounded=0;orthogonalLoop=1;jettySize=auto;html=1;fontSize=11;endArrow=block;endFill=0;entryX=0.5;entryY=1;entryDx=0;entryDy=0;" parent="1" source="S2yTtaICxEiza2klLoan-266" target="S2yTtaICxEiza2klLoan-1" edge="1">
          <mxGeometry relative="1" as="geometry">
            <mxPoint x="-549.1199999999999" y="917.5" as="sourcePoint" />
            <mxPoint x="295" y="173.5" as="targetPoint" />
            <Array as="points">
              <mxPoint x="-600" y="918" />
              <mxPoint x="-600" y="60" />
              <mxPoint x="327" y="60" />
            </Array>
          </mxGeometry>
        </mxCell>
        <mxCell id="RRPiJrw65Izm6exMgmJe-1" value="&lt;u&gt;adapters:Off&lt;/u&gt;" style="rounded=0;whiteSpace=wrap;html=1;snapToPoint=1;points=[[0.1,0],[0.2,0],[0.3,0],[0.4,0],[0.5,0],[0.6,0],[0.7,0],[0.8,0],[0.9,0],[0,0.1],[0,0.3],[0,0.5],[0,0.7],[0,0.9],[0.1,1],[0.2,1],[0.3,1],[0.4,1],[0.5,1],[0.6,1],[0.7,1],[0.8,1],[0.9,1],[1,0.1],[1,0.3],[1,0.5],[1,0.7],[1,0.9]];" parent="1" vertex="1">
          <mxGeometry x="43" y="651.12" width="146" height="23" as="geometry" />
        </mxCell>
        <mxCell id="RRPiJrw65Izm6exMgmJe-2" value="&lt;u&gt;adapters:On&lt;/u&gt;" style="rounded=0;whiteSpace=wrap;html=1;snapToPoint=1;points=[[0.1,0],[0.2,0],[0.3,0],[0.4,0],[0.5,0],[0.6,0],[0.7,0],[0.8,0],[0.9,0],[0,0.1],[0,0.3],[0,0.5],[0,0.7],[0,0.9],[0.1,1],[0.2,1],[0.3,1],[0.4,1],[0.5,1],[0.6,1],[0.7,1],[0.8,1],[0.9,1],[1,0.1],[1,0.3],[1,0.5],[1,0.7],[1,0.9]];" parent="1" vertex="1">
          <mxGeometry x="43" y="622.87" width="146" height="23" as="geometry" />
        </mxCell>
        <mxCell id="RRPiJrw65Izm6exMgmJe-3" value="&lt;u&gt;adapters:available&lt;/u&gt;" style="rounded=0;whiteSpace=wrap;html=1;snapToPoint=1;points=[[0.1,0],[0.2,0],[0.3,0],[0.4,0],[0.5,0],[0.6,0],[0.7,0],[0.8,0],[0.9,0],[0,0.1],[0,0.3],[0,0.5],[0,0.7],[0,0.9],[0.1,1],[0.2,1],[0.3,1],[0.4,1],[0.5,1],[0.6,1],[0.7,1],[0.8,1],[0.9,1],[1,0.1],[1,0.3],[1,0.5],[1,0.7],[1,0.9]];" parent="1" vertex="1">
          <mxGeometry x="44" y="679.63" width="146" height="23" as="geometry" />
        </mxCell>
        <mxCell id="RRPiJrw65Izm6exMgmJe-4" value="&lt;u&gt;adapters:unavailable&lt;/u&gt;" style="rounded=0;whiteSpace=wrap;html=1;snapToPoint=1;points=[[0.1,0],[0.2,0],[0.3,0],[0.4,0],[0.5,0],[0.6,0],[0.7,0],[0.8,0],[0.9,0],[0,0.1],[0,0.3],[0,0.5],[0,0.7],[0,0.9],[0.1,1],[0.2,1],[0.3,1],[0.4,1],[0.5,1],[0.6,1],[0.7,1],[0.8,1],[0.9,1],[1,0.1],[1,0.3],[1,0.5],[1,0.7],[1,0.9]];" parent="1" vertex="1">
          <mxGeometry x="41" y="710.37" width="146" height="23" as="geometry" />
        </mxCell>
        <mxCell id="RRPiJrw65Izm6exMgmJe-5" value="" style="endArrow=open;html=1;fontColor=#000099;endFill=0;dashed=1;endSize=8;exitX=0;exitY=0.5;exitDx=0;exitDy=0;edgeStyle=orthogonalEdgeStyle;arcSize=0;" parent="1" source="RRPiJrw65Izm6exMgmJe-2" edge="1">
          <mxGeometry width="50" height="50" relative="1" as="geometry">
            <mxPoint x="86.25" y="610.0000000000001" as="sourcePoint" />
            <mxPoint x="33" y="580.0000000000001" as="targetPoint" />
            <Array as="points">
              <mxPoint x="33" y="634.62" />
            </Array>
          </mxGeometry>
        </mxCell>
        <mxCell id="RRPiJrw65Izm6exMgmJe-6" value="" style="endArrow=open;html=1;fontColor=#000099;endFill=0;dashed=1;endSize=8;exitX=0;exitY=0.7;exitDx=0;exitDy=0;edgeStyle=orthogonalEdgeStyle;arcSize=0;" parent="1" source="RRPiJrw65Izm6exMgmJe-1" edge="1">
          <mxGeometry width="50" height="50" relative="1" as="geometry">
            <mxPoint x="53" y="644.37" as="sourcePoint" />
            <mxPoint x="33" y="580.0000000000001" as="targetPoint" />
            <Array as="points">
              <mxPoint x="33" y="667.62" />
            </Array>
          </mxGeometry>
        </mxCell>
        <mxCell id="RRPiJrw65Izm6exMgmJe-7" value="" style="endArrow=open;html=1;fontColor=#000099;endFill=0;dashed=1;endSize=8;exitX=0;exitY=0.5;exitDx=0;exitDy=0;edgeStyle=orthogonalEdgeStyle;arcSize=0;" parent="1" source="RRPiJrw65Izm6exMgmJe-3" edge="1">
          <mxGeometry width="50" height="50" relative="1" as="geometry">
            <mxPoint x="33" y="690.6299999999999" as="sourcePoint" />
            <mxPoint x="33" y="580.0000000000001" as="targetPoint" />
            <Array as="points">
              <mxPoint x="33" y="691.62" />
            </Array>
          </mxGeometry>
        </mxCell>
        <mxCell id="RRPiJrw65Izm6exMgmJe-8" value="" style="endArrow=open;html=1;fontColor=#000099;endFill=0;dashed=1;endSize=8;edgeStyle=orthogonalEdgeStyle;arcSize=0;" parent="1" source="RRPiJrw65Izm6exMgmJe-4" edge="1">
          <mxGeometry width="50" height="50" relative="1" as="geometry">
            <mxPoint x="34" y="721.13" as="sourcePoint" />
            <mxPoint x="33" y="580.0000000000001" as="targetPoint" />
            <Array as="points">
              <mxPoint x="33" y="721.62" />
            </Array>
          </mxGeometry>
        </mxCell>
        <mxCell id="9VYbn3iC4xZp0ArKXTw_-1" value="&lt;u&gt;adapters:DeviceStatus&lt;/u&gt;" style="rounded=0;whiteSpace=wrap;html=1;snapToPoint=1;points=[[0.1,0],[0.2,0],[0.3,0],[0.4,0],[0.5,0],[0.6,0],[0.7,0],[0.8,0],[0.9,0],[0,0.1],[0,0.3],[0,0.5],[0,0.7],[0,0.9],[0.1,1],[0.2,1],[0.3,1],[0.4,1],[0.5,1],[0.6,1],[0.7,1],[0.8,1],[0.9,1],[1,0.1],[1,0.3],[1,0.5],[1,0.7],[1,0.9]];" parent="1" vertex="1">
          <mxGeometry x="41" y="742.37" width="146" height="23" as="geometry" />
        </mxCell>
        <mxCell id="9VYbn3iC4xZp0ArKXTw_-2" value="" style="endArrow=open;html=1;fontColor=#000099;endFill=0;dashed=1;endSize=8;edgeStyle=orthogonalEdgeStyle;arcSize=0;" parent="1" source="9VYbn3iC4xZp0ArKXTw_-1" edge="1">
          <mxGeometry width="50" height="50" relative="1" as="geometry">
            <mxPoint x="41" y="761.94" as="sourcePoint" />
            <mxPoint x="33" y="580.0000000000001" as="targetPoint" />
            <Array as="points">
              <mxPoint x="33" y="761.62" />
            </Array>
          </mxGeometry>
        </mxCell>
        <mxCell id="21dBg57OMGeitolL75K5-1" value="&lt;u&gt;adapters:SelectableStatus&lt;/u&gt;" style="rounded=0;whiteSpace=wrap;html=1;snapToPoint=1;points=[[0.1,0],[0.2,0],[0.3,0],[0.4,0],[0.5,0],[0.6,0],[0.7,0],[0.8,0],[0.9,0],[0,0.1],[0,0.3],[0,0.5],[0,0.7],[0,0.9],[0.1,1],[0.2,1],[0.3,1],[0.4,1],[0.5,1],[0.6,1],[0.7,1],[0.8,1],[0.9,1],[1,0.1],[1,0.3],[1,0.5],[1,0.7],[1,0.9]];" parent="1" vertex="1">
          <mxGeometry x="41" y="809.87" width="146" height="23" as="geometry" />
        </mxCell>
        <mxCell id="21dBg57OMGeitolL75K5-3" value="&lt;u&gt;adapters:OperationalStatus&lt;/u&gt;" style="rounded=0;whiteSpace=wrap;html=1;snapToPoint=1;points=[[0.1,0],[0.2,0],[0.3,0],[0.4,0],[0.5,0],[0.6,0],[0.7,0],[0.8,0],[0.9,0],[0,0.1],[0,0.3],[0,0.5],[0,0.7],[0,0.9],[0.1,1],[0.2,1],[0.3,1],[0.4,1],[0.5,1],[0.6,1],[0.7,1],[0.8,1],[0.9,1],[1,0.1],[1,0.3],[1,0.5],[1,0.7],[1,0.9]];" parent="1" vertex="1">
          <mxGeometry x="41" y="775.88" width="146" height="23" as="geometry" />
        </mxCell>
        <mxCell id="21dBg57OMGeitolL75K5-4" value="adapters:title:String&lt;br&gt;adapters:dateLastStatusUpdate: dateTime" style="rounded=0;whiteSpace=wrap;html=1;snapToPoint=1;points=[[0.1,0],[0.2,0],[0.3,0],[0.4,0],[0.5,0],[0.6,0],[0.7,0],[0.8,0],[0.9,0],[0,0.1],[0,0.3],[0,0.5],[0,0.7],[0,0.9],[0.1,1],[0.2,1],[0.3,1],[0.4,1],[0.5,1],[0.6,1],[0.7,1],[0.8,1],[0.9,1],[1,0.1],[1,0.3],[1,0.5],[1,0.7],[1,0.9]];align=left;" parent="1" vertex="1">
          <mxGeometry x="-70" y="529.38" width="230" height="50.62" as="geometry" />
        </mxCell>
        <mxCell id="gSArpsVwq8EsYLVBJ_73-1" value="adapters:Power" style="rounded=0;whiteSpace=wrap;html=1;fillColor=#d5e8d4;strokeColor=#82b366;" parent="1" vertex="1">
          <mxGeometry x="531" y="520" width="147" height="30" as="geometry" />
        </mxCell>
        <mxCell id="gSArpsVwq8EsYLVBJ_73-2" style="edgeStyle=orthogonalEdgeStyle;rounded=0;orthogonalLoop=1;jettySize=auto;html=1;fontSize=11;endArrow=block;endFill=0;exitX=1;exitY=0.5;exitDx=0;exitDy=0;" parent="1" source="gSArpsVwq8EsYLVBJ_73-1" target="S2yTtaICxEiza2klLoan-1" edge="1">
          <mxGeometry relative="1" as="geometry">
            <mxPoint x="563.5" y="90" as="sourcePoint" />
            <mxPoint x="337" y="50" as="targetPoint" />
            <Array as="points">
              <mxPoint x="710" y="535" />
              <mxPoint x="710" y="60" />
              <mxPoint x="327" y="60" />
            </Array>
          </mxGeometry>
        </mxCell>
        <mxCell id="gSArpsVwq8EsYLVBJ_73-4" value="&lt;u&gt;adapters:ExtPower&lt;/u&gt;" style="rounded=0;whiteSpace=wrap;html=1;snapToPoint=1;points=[[0.1,0],[0.2,0],[0.3,0],[0.4,0],[0.5,0],[0.6,0],[0.7,0],[0.8,0],[0.9,0],[0,0.1],[0,0.3],[0,0.5],[0,0.7],[0,0.9],[0.1,1],[0.2,1],[0.3,1],[0.4,1],[0.5,1],[0.6,1],[0.7,1],[0.8,1],[0.9,1],[1,0.1],[1,0.3],[1,0.5],[1,0.7],[1,0.9]];" parent="1" vertex="1">
          <mxGeometry x="529.5" y="580" width="173" height="23" as="geometry" />
        </mxCell>
        <mxCell id="gSArpsVwq8EsYLVBJ_73-5" value="" style="endArrow=open;html=1;fontColor=#000099;endFill=0;dashed=1;endSize=8;edgeStyle=orthogonalEdgeStyle;arcSize=0;" parent="1" source="gSArpsVwq8EsYLVBJ_73-4" target="gSArpsVwq8EsYLVBJ_73-1" edge="1">
          <mxGeometry width="50" height="50" relative="1" as="geometry">
            <mxPoint x="610" y="567.1500000000001" as="sourcePoint" />
            <mxPoint x="580" y="502.8" as="targetPoint" />
            <Array as="points" />
          </mxGeometry>
        </mxCell>
        <mxCell id="gSArpsVwq8EsYLVBJ_73-7" value="" style="endArrow=open;html=1;fontColor=#000099;endFill=0;dashed=1;endSize=8;exitX=0;exitY=0.5;exitDx=0;exitDy=0;edgeStyle=orthogonalEdgeStyle;arcSize=0;" parent="1" source="S2yTtaICxEiza2klLoan-151" target="S2yTtaICxEiza2klLoan-146" edge="1">
          <mxGeometry width="50" height="50" relative="1" as="geometry">
            <mxPoint x="-96.75" y="964.5" as="sourcePoint" />
            <mxPoint x="-130" y="840" as="targetPoint" />
            <Array as="points">
              <mxPoint x="-130" y="1017" />
            </Array>
          </mxGeometry>
        </mxCell>
        <mxCell id="gSArpsVwq8EsYLVBJ_73-8" value="" style="endArrow=open;html=1;fontColor=#000099;endFill=0;dashed=1;endSize=8;edgeStyle=orthogonalEdgeStyle;arcSize=0;" parent="1" source="S2yTtaICxEiza2klLoan-153" edge="1">
          <mxGeometry width="50" height="50" relative="1" as="geometry">
            <mxPoint x="-106.75" y="1071.87" as="sourcePoint" />
            <mxPoint x="-133" y="840" as="targetPoint" />
            <Array as="points">
              <mxPoint x="-130" y="1072" />
              <mxPoint x="-130" y="914" />
              <mxPoint x="-133" y="914" />
            </Array>
          </mxGeometry>
        </mxCell>
        <mxCell id="gSArpsVwq8EsYLVBJ_73-10" value="" style="endArrow=open;html=1;fontColor=#000099;endFill=0;dashed=1;endSize=8;edgeStyle=orthogonalEdgeStyle;arcSize=0;exitX=0;exitY=0.5;exitDx=0;exitDy=0;" parent="1" edge="1">
          <mxGeometry width="50" height="50" relative="1" as="geometry">
            <mxPoint x="41" y="792.3800000000001" as="sourcePoint" />
            <mxPoint x="33" y="581" as="targetPoint" />
            <Array as="points">
              <mxPoint x="33" y="792" />
            </Array>
          </mxGeometry>
        </mxCell>
        <mxCell id="gSArpsVwq8EsYLVBJ_73-11" value="" style="endArrow=open;html=1;fontColor=#000099;endFill=0;dashed=1;endSize=8;edgeStyle=orthogonalEdgeStyle;arcSize=0;" parent="1" edge="1">
          <mxGeometry width="50" height="50" relative="1" as="geometry">
            <mxPoint x="41" y="826" as="sourcePoint" />
            <mxPoint x="35" y="580" as="targetPoint" />
            <Array as="points">
              <mxPoint x="33" y="827" />
              <mxPoint x="33" y="588" />
            </Array>
          </mxGeometry>
        </mxCell>
        <mxCell id="gSArpsVwq8EsYLVBJ_73-12" value="&lt;u&gt;adapters:RelayStatus&lt;/u&gt;" style="rounded=0;whiteSpace=wrap;html=1;snapToPoint=1;points=[[0.1,0],[0.2,0],[0.3,0],[0.4,0],[0.5,0],[0.6,0],[0.7,0],[0.8,0],[0.9,0],[0,0.1],[0,0.3],[0,0.5],[0,0.7],[0,0.9],[0.1,1],[0.2,1],[0.3,1],[0.4,1],[0.5,1],[0.6,1],[0.7,1],[0.8,1],[0.9,1],[1,0.1],[1,0.3],[1,0.5],[1,0.7],[1,0.9]];" parent="1" vertex="1">
          <mxGeometry x="41" y="843" width="146" height="23" as="geometry" />
        </mxCell>
        <mxCell id="gSArpsVwq8EsYLVBJ_73-13" value="" style="endArrow=open;html=1;fontColor=#000099;endFill=0;dashed=1;endSize=8;edgeStyle=orthogonalEdgeStyle;arcSize=0;" parent="1" edge="1">
          <mxGeometry width="50" height="50" relative="1" as="geometry">
            <mxPoint x="40" y="849" as="sourcePoint" />
            <mxPoint x="34" y="579" as="targetPoint" />
            <Array as="points">
              <mxPoint x="32" y="849" />
              <mxPoint x="32" y="605" />
              <mxPoint x="34" y="605" />
            </Array>
          </mxGeometry>
        </mxCell>
        <mxCell id="oxq1cwRjhsOJwXBdMyya-1" value="adapters:Waste" style="rounded=0;whiteSpace=wrap;html=1;fillColor=#d5e8d4;strokeColor=#82b366;points=[[0.1,0],[0.2,0],[0.3,0],[0.4,0],[0.5,0],[0.6,0],[0.7,0],[0.8,0],[0.9,0],[0,0.1],[0,0.3],[0,0.5],[0,0.7],[0,0.9],[0.1,1],[0.2,1],[0.3,1],[0.4,1],[0.5,1],[0.6,1],[0.7,1],[0.8,1],[0.9,1],[1,0.1],[1,0.3],[1,0.5],[1,0.7],[1,0.9]];" parent="1" vertex="1">
          <mxGeometry x="519.5" y="622.87" width="147" height="30" as="geometry" />
        </mxCell>
        <mxCell id="oxq1cwRjhsOJwXBdMyya-2" value="&lt;u&gt;adapters:FoodWaste&lt;/u&gt;" style="rounded=0;whiteSpace=wrap;html=1;snapToPoint=1;points=[[0.1,0],[0.2,0],[0.3,0],[0.4,0],[0.5,0],[0.6,0],[0.7,0],[0.8,0],[0.9,0],[0,0.1],[0,0.3],[0,0.5],[0,0.7],[0,0.9],[0.1,1],[0.2,1],[0.3,1],[0.4,1],[0.5,1],[0.6,1],[0.7,1],[0.8,1],[0.9,1],[1,0.1],[1,0.3],[1,0.5],[1,0.7],[1,0.9]];" parent="1" vertex="1">
          <mxGeometry x="549" y="669.12" width="204" height="23" as="geometry" />
        </mxCell>
        <mxCell id="oxq1cwRjhsOJwXBdMyya-3" value="" style="endArrow=open;html=1;fontColor=#000099;endFill=0;dashed=1;endSize=8;edgeStyle=orthogonalEdgeStyle;arcSize=0;entryX=0.1;entryY=1;entryDx=0;entryDy=0;exitX=0;exitY=0.5;exitDx=0;exitDy=0;" parent="1" source="oxq1cwRjhsOJwXBdMyya-2" target="oxq1cwRjhsOJwXBdMyya-1" edge="1">
          <mxGeometry width="50" height="50" relative="1" as="geometry">
            <mxPoint x="598.5" y="670.0200000000001" as="sourcePoint" />
            <mxPoint x="568.5" y="605.67" as="targetPoint" />
            <Array as="points" />
          </mxGeometry>
        </mxCell>
        <mxCell id="oxq1cwRjhsOJwXBdMyya-4" style="edgeStyle=orthogonalEdgeStyle;rounded=0;orthogonalLoop=1;jettySize=auto;html=1;fontSize=11;endArrow=block;endFill=0;exitX=1;exitY=0.5;exitDx=0;exitDy=0;entryX=0.5;entryY=1;entryDx=0;entryDy=0;" parent="1" source="oxq1cwRjhsOJwXBdMyya-1" target="S2yTtaICxEiza2klLoan-1" edge="1">
          <mxGeometry relative="1" as="geometry">
            <mxPoint x="688" y="545" as="sourcePoint" />
            <mxPoint x="400" y="30" as="targetPoint" />
            <Array as="points">
              <mxPoint x="720" y="638" />
              <mxPoint x="720" y="60" />
              <mxPoint x="327" y="60" />
            </Array>
          </mxGeometry>
        </mxCell>
        <mxCell id="oxq1cwRjhsOJwXBdMyya-5" value="&lt;u&gt;adapters:Paper&lt;/u&gt;" style="rounded=0;whiteSpace=wrap;html=1;snapToPoint=1;points=[[0.1,0],[0.2,0],[0.3,0],[0.4,0],[0.5,0],[0.6,0],[0.7,0],[0.8,0],[0.9,0],[0,0.1],[0,0.3],[0,0.5],[0,0.7],[0,0.9],[0.1,1],[0.2,1],[0.3,1],[0.4,1],[0.5,1],[0.6,1],[0.7,1],[0.8,1],[0.9,1],[1,0.1],[1,0.3],[1,0.5],[1,0.7],[1,0.9]];" parent="1" vertex="1">
          <mxGeometry x="549" y="699" width="204" height="23" as="geometry" />
        </mxCell>
        <mxCell id="oxq1cwRjhsOJwXBdMyya-6" value="" style="endArrow=open;html=1;fontColor=#000099;endFill=0;dashed=1;endSize=8;edgeStyle=orthogonalEdgeStyle;arcSize=0;exitX=0;exitY=0.5;exitDx=0;exitDy=0;entryX=0.1;entryY=1;entryDx=0;entryDy=0;" parent="1" source="oxq1cwRjhsOJwXBdMyya-5" target="oxq1cwRjhsOJwXBdMyya-1" edge="1">
          <mxGeometry width="50" height="50" relative="1" as="geometry">
            <mxPoint x="608.5" y="680.0200000000001" as="sourcePoint" />
            <mxPoint x="530" y="680" as="targetPoint" />
            <Array as="points" />
          </mxGeometry>
        </mxCell>
        <mxCell id="oxq1cwRjhsOJwXBdMyya-7" value="&lt;u&gt;adapters:GlassAndMetalPackaging&lt;/u&gt;" style="rounded=0;whiteSpace=wrap;html=1;snapToPoint=1;points=[[0.1,0],[0.2,0],[0.3,0],[0.4,0],[0.5,0],[0.6,0],[0.7,0],[0.8,0],[0.9,0],[0,0.1],[0,0.3],[0,0.5],[0,0.7],[0,0.9],[0.1,1],[0.2,1],[0.3,1],[0.4,1],[0.5,1],[0.6,1],[0.7,1],[0.8,1],[0.9,1],[1,0.1],[1,0.3],[1,0.5],[1,0.7],[1,0.9]];" parent="1" vertex="1">
          <mxGeometry x="549" y="729" width="204" height="23" as="geometry" />
        </mxCell>
        <mxCell id="oxq1cwRjhsOJwXBdMyya-8" value="" style="endArrow=open;html=1;fontColor=#000099;endFill=0;dashed=1;endSize=8;edgeStyle=orthogonalEdgeStyle;arcSize=0;exitX=0;exitY=0.5;exitDx=0;exitDy=0;entryX=0.1;entryY=1;entryDx=0;entryDy=0;" parent="1" source="oxq1cwRjhsOJwXBdMyya-7" target="oxq1cwRjhsOJwXBdMyya-1" edge="1">
          <mxGeometry width="50" height="50" relative="1" as="geometry">
            <mxPoint x="618.5" y="690.0200000000001" as="sourcePoint" />
            <mxPoint x="530" y="710" as="targetPoint" />
          </mxGeometry>
        </mxCell>
        <mxCell id="oxq1cwRjhsOJwXBdMyya-9" value="&lt;u&gt;adapters:Plastic&lt;/u&gt;&lt;u&gt;Packaging&lt;/u&gt;" style="rounded=0;whiteSpace=wrap;html=1;snapToPoint=1;points=[[0.1,0],[0.2,0],[0.3,0],[0.4,0],[0.5,0],[0.6,0],[0.7,0],[0.8,0],[0.9,0],[0,0.1],[0,0.3],[0,0.5],[0,0.7],[0,0.9],[0.1,1],[0.2,1],[0.3,1],[0.4,1],[0.5,1],[0.6,1],[0.7,1],[0.8,1],[0.9,1],[1,0.1],[1,0.3],[1,0.5],[1,0.7],[1,0.9]];" parent="1" vertex="1">
          <mxGeometry x="549" y="759" width="204" height="23" as="geometry" />
        </mxCell>
        <mxCell id="oxq1cwRjhsOJwXBdMyya-10" value="" style="endArrow=open;html=1;fontColor=#000099;endFill=0;dashed=1;endSize=8;edgeStyle=orthogonalEdgeStyle;arcSize=0;exitX=0;exitY=0.5;exitDx=0;exitDy=0;entryX=0.1;entryY=1;entryDx=0;entryDy=0;" parent="1" source="oxq1cwRjhsOJwXBdMyya-9" target="oxq1cwRjhsOJwXBdMyya-1" edge="1">
          <mxGeometry width="50" height="50" relative="1" as="geometry">
            <mxPoint x="628.5" y="700.0200000000001" as="sourcePoint" />
            <mxPoint x="530" y="730" as="targetPoint" />
            <Array as="points" />
          </mxGeometry>
        </mxCell>
        <mxCell id="oxq1cwRjhsOJwXBdMyya-11" value="&lt;u&gt;adapters:CombustibleWaste&lt;/u&gt;" style="rounded=0;whiteSpace=wrap;html=1;snapToPoint=1;points=[[0.1,0],[0.2,0],[0.3,0],[0.4,0],[0.5,0],[0.6,0],[0.7,0],[0.8,0],[0.9,0],[0,0.1],[0,0.3],[0,0.5],[0,0.7],[0,0.9],[0.1,1],[0.2,1],[0.3,1],[0.4,1],[0.5,1],[0.6,1],[0.7,1],[0.8,1],[0.9,1],[1,0.1],[1,0.3],[1,0.5],[1,0.7],[1,0.9]];" parent="1" vertex="1">
          <mxGeometry x="549" y="789" width="204" height="23" as="geometry" />
        </mxCell>
        <mxCell id="oxq1cwRjhsOJwXBdMyya-12" value="" style="endArrow=open;html=1;fontColor=#000099;endFill=0;dashed=1;endSize=8;edgeStyle=orthogonalEdgeStyle;arcSize=0;exitX=0;exitY=0.5;exitDx=0;exitDy=0;entryX=0.1;entryY=1;entryDx=0;entryDy=0;" parent="1" source="oxq1cwRjhsOJwXBdMyya-11" target="oxq1cwRjhsOJwXBdMyya-1" edge="1">
          <mxGeometry width="50" height="50" relative="1" as="geometry">
            <mxPoint x="580" y="807.5" as="sourcePoint" />
            <mxPoint x="520" y="670" as="targetPoint" />
            <Array as="points" />
          </mxGeometry>
        </mxCell>
        <mxCell id="suHfN4VQdeFkMvTlZ6n_-1" value="" style="endArrow=open;html=1;fontColor=#000099;endFill=0;dashed=1;endSize=8;edgeStyle=orthogonalEdgeStyle;arcSize=0;exitX=0;exitY=0.5;exitDx=0;exitDy=0;entryX=0.5;entryY=1;entryDx=0;entryDy=0;" edge="1" parent="1" source="S2yTtaICxEiza2klLoan-114" target="S2yTtaICxEiza2klLoan-4">
          <mxGeometry width="50" height="50" relative="1" as="geometry">
            <mxPoint y="185" as="sourcePoint" />
            <mxPoint x="-24" y="120" as="targetPoint" />
          </mxGeometry>
        </mxCell>
        <mxCell id="suHfN4VQdeFkMvTlZ6n_-2" value="" style="endArrow=open;html=1;fontColor=#000099;endFill=0;dashed=1;endSize=8;edgeStyle=orthogonalEdgeStyle;arcSize=0;exitX=0;exitY=0.5;exitDx=0;exitDy=0;entryX=0.5;entryY=1;entryDx=0;entryDy=0;" edge="1" parent="1" source="S2yTtaICxEiza2klLoan-115" target="S2yTtaICxEiza2klLoan-4">
          <mxGeometry width="50" height="50" relative="1" as="geometry">
            <mxPoint x="4" y="223" as="sourcePoint" />
            <mxPoint x="-24" y="120" as="targetPoint" />
          </mxGeometry>
        </mxCell>
        <mxCell id="suHfN4VQdeFkMvTlZ6n_-3" value="" style="endArrow=open;html=1;fontColor=#000099;endFill=0;dashed=1;endSize=8;edgeStyle=orthogonalEdgeStyle;arcSize=0;exitX=0;exitY=0.5;exitDx=0;exitDy=0;entryX=0.5;entryY=1;entryDx=0;entryDy=0;" edge="1" parent="1" source="S2yTtaICxEiza2klLoan-117" target="S2yTtaICxEiza2klLoan-4">
          <mxGeometry width="50" height="50" relative="1" as="geometry">
            <mxPoint x="4" y="259" as="sourcePoint" />
            <mxPoint x="-24" y="120" as="targetPoint" />
          </mxGeometry>
        </mxCell>
        <mxCell id="suHfN4VQdeFkMvTlZ6n_-4" value="" style="endArrow=open;html=1;fontColor=#000099;endFill=0;dashed=1;endSize=8;edgeStyle=orthogonalEdgeStyle;arcSize=0;exitX=0;exitY=0.5;exitDx=0;exitDy=0;entryX=0.5;entryY=1;entryDx=0;entryDy=0;" edge="1" parent="1" source="S2yTtaICxEiza2klLoan-116" target="S2yTtaICxEiza2klLoan-4">
          <mxGeometry width="50" height="50" relative="1" as="geometry">
            <mxPoint x="4" y="289" as="sourcePoint" />
            <mxPoint x="-24" y="120" as="targetPoint" />
          </mxGeometry>
        </mxCell>
        <mxCell id="suHfN4VQdeFkMvTlZ6n_-5" value="" style="endArrow=open;html=1;fontColor=#000099;endFill=0;dashed=1;endSize=8;edgeStyle=orthogonalEdgeStyle;arcSize=0;exitX=0;exitY=0.5;exitDx=0;exitDy=0;entryX=0.5;entryY=1;entryDx=0;entryDy=0;" edge="1" parent="1" source="S2yTtaICxEiza2klLoan-118" target="S2yTtaICxEiza2klLoan-4">
          <mxGeometry width="50" height="50" relative="1" as="geometry">
            <mxPoint x="14" y="299" as="sourcePoint" />
            <mxPoint x="-14" y="130" as="targetPoint" />
          </mxGeometry>
        </mxCell>
        <mxCell id="suHfN4VQdeFkMvTlZ6n_-6" value="" style="endArrow=open;html=1;fontColor=#000099;endFill=0;dashed=1;endSize=8;edgeStyle=orthogonalEdgeStyle;arcSize=0;exitX=0;exitY=0.5;exitDx=0;exitDy=0;entryX=0.5;entryY=1;entryDx=0;entryDy=0;" edge="1" parent="1" source="S2yTtaICxEiza2klLoan-119" target="S2yTtaICxEiza2klLoan-4">
          <mxGeometry width="50" height="50" relative="1" as="geometry">
            <mxPoint x="4" y="350" as="sourcePoint" />
            <mxPoint x="-24" y="120" as="targetPoint" />
          </mxGeometry>
        </mxCell>
        <mxCell id="suHfN4VQdeFkMvTlZ6n_-7" value="" style="endArrow=open;html=1;fontColor=#000099;endFill=0;dashed=1;endSize=8;edgeStyle=orthogonalEdgeStyle;arcSize=0;exitX=1;exitY=0.5;exitDx=0;exitDy=0;entryX=0.5;entryY=1;entryDx=0;entryDy=0;" edge="1" parent="1" source="S2yTtaICxEiza2klLoan-105" target="S2yTtaICxEiza2klLoan-4">
          <mxGeometry width="50" height="50" relative="1" as="geometry">
            <mxPoint x="14" y="360" as="sourcePoint" />
            <mxPoint x="-14" y="130" as="targetPoint" />
          </mxGeometry>
        </mxCell>
        <mxCell id="suHfN4VQdeFkMvTlZ6n_-8" value="" style="endArrow=open;html=1;fontColor=#000099;endFill=0;dashed=1;endSize=8;edgeStyle=orthogonalEdgeStyle;arcSize=0;exitX=1;exitY=0.5;exitDx=0;exitDy=0;entryX=0.5;entryY=1;entryDx=0;entryDy=0;" edge="1" parent="1" source="S2yTtaICxEiza2klLoan-106" target="S2yTtaICxEiza2klLoan-4">
          <mxGeometry width="50" height="50" relative="1" as="geometry">
            <mxPoint x="24" y="370" as="sourcePoint" />
            <mxPoint x="-4" y="140" as="targetPoint" />
          </mxGeometry>
        </mxCell>
        <mxCell id="suHfN4VQdeFkMvTlZ6n_-9" value="" style="endArrow=open;html=1;fontColor=#000099;endFill=0;dashed=1;endSize=8;edgeStyle=orthogonalEdgeStyle;arcSize=0;exitX=1;exitY=0.5;exitDx=0;exitDy=0;entryX=0.5;entryY=1;entryDx=0;entryDy=0;" edge="1" parent="1" source="S2yTtaICxEiza2klLoan-107" target="S2yTtaICxEiza2klLoan-4">
          <mxGeometry width="50" height="50" relative="1" as="geometry">
            <mxPoint x="34" y="380" as="sourcePoint" />
            <mxPoint x="6" y="150" as="targetPoint" />
          </mxGeometry>
        </mxCell>
        <mxCell id="suHfN4VQdeFkMvTlZ6n_-10" value="" style="endArrow=open;html=1;fontColor=#000099;endFill=0;dashed=1;endSize=8;edgeStyle=orthogonalEdgeStyle;arcSize=0;exitX=1;exitY=0.5;exitDx=0;exitDy=0;entryX=0.5;entryY=1;entryDx=0;entryDy=0;" edge="1" parent="1" source="S2yTtaICxEiza2klLoan-108" target="S2yTtaICxEiza2klLoan-4">
          <mxGeometry width="50" height="50" relative="1" as="geometry">
            <mxPoint x="44" y="390" as="sourcePoint" />
            <mxPoint x="16" y="160" as="targetPoint" />
          </mxGeometry>
        </mxCell>
        <mxCell id="suHfN4VQdeFkMvTlZ6n_-11" value="" style="endArrow=open;html=1;fontColor=#000099;endFill=0;dashed=1;endSize=8;edgeStyle=orthogonalEdgeStyle;arcSize=0;entryX=0.5;entryY=1;entryDx=0;entryDy=0;exitX=1;exitY=0.5;exitDx=0;exitDy=0;" edge="1" parent="1" source="S2yTtaICxEiza2klLoan-109" target="S2yTtaICxEiza2klLoan-4">
          <mxGeometry width="50" height="50" relative="1" as="geometry">
            <mxPoint x="54" y="400" as="sourcePoint" />
            <mxPoint x="26" y="170" as="targetPoint" />
          </mxGeometry>
        </mxCell>
        <mxCell id="suHfN4VQdeFkMvTlZ6n_-12" value="" style="endArrow=open;html=1;fontColor=#000099;endFill=0;dashed=1;endSize=8;edgeStyle=orthogonalEdgeStyle;arcSize=0;exitX=1;exitY=0.5;exitDx=0;exitDy=0;" edge="1" parent="1" source="S2yTtaICxEiza2klLoan-110" target="S2yTtaICxEiza2klLoan-4">
          <mxGeometry width="50" height="50" relative="1" as="geometry">
            <mxPoint x="64" y="410" as="sourcePoint" />
            <mxPoint x="-30" y="110" as="targetPoint" />
          </mxGeometry>
        </mxCell>
        <mxCell id="suHfN4VQdeFkMvTlZ6n_-13" value="" style="endArrow=open;html=1;fontColor=#000099;endFill=0;dashed=1;endSize=8;edgeStyle=orthogonalEdgeStyle;arcSize=0;exitX=1;exitY=0.5;exitDx=0;exitDy=0;entryX=0.5;entryY=1;entryDx=0;entryDy=0;" edge="1" parent="1" source="S2yTtaICxEiza2klLoan-111" target="S2yTtaICxEiza2klLoan-4">
          <mxGeometry width="50" height="50" relative="1" as="geometry">
            <mxPoint x="74" y="420" as="sourcePoint" />
            <mxPoint x="-150" y="90" as="targetPoint" />
          </mxGeometry>
        </mxCell>
        <mxCell id="suHfN4VQdeFkMvTlZ6n_-14" value="&lt;u&gt;adapters:&lt;/u&gt;&lt;u style=&quot;&quot;&gt;&lt;font&gt;OxygenLevel&lt;/font&gt;&lt;/u&gt;" style="rounded=0;whiteSpace=wrap;html=1;snapToPoint=1;points=[[0.1,0],[0.2,0],[0.3,0],[0.4,0],[0.5,0],[0.6,0],[0.7,0],[0.8,0],[0.9,0],[0,0.1],[0,0.3],[0,0.5],[0,0.7],[0,0.9],[0.1,1],[0.2,1],[0.3,1],[0.4,1],[0.5,1],[0.6,1],[0.7,1],[0.8,1],[0.9,1],[1,0.1],[1,0.3],[1,0.5],[1,0.7],[1,0.9]];fontColor=#000000;fontStyle=0" vertex="1" parent="1">
          <mxGeometry x="-10" y="384.5" width="200" height="23" as="geometry" />
        </mxCell>
        <mxCell id="suHfN4VQdeFkMvTlZ6n_-15" value="" style="endArrow=open;html=1;fontColor=#000099;endFill=0;dashed=1;endSize=8;edgeStyle=orthogonalEdgeStyle;arcSize=0;exitX=0;exitY=0.5;exitDx=0;exitDy=0;entryX=0.5;entryY=1;entryDx=0;entryDy=0;" edge="1" parent="1" source="suHfN4VQdeFkMvTlZ6n_-14" target="S2yTtaICxEiza2klLoan-4">
          <mxGeometry width="50" height="50" relative="1" as="geometry">
            <mxPoint y="378" as="sourcePoint" />
            <mxPoint x="-24" y="120" as="targetPoint" />
          </mxGeometry>
        </mxCell>
        <mxCell id="suHfN4VQdeFkMvTlZ6n_-16" value="&lt;u&gt;&lt;span&gt;&lt;font&gt;adapters:BodyTemperature&lt;/font&gt;&lt;/span&gt;&lt;/u&gt;" style="rounded=0;whiteSpace=wrap;html=1;snapToPoint=1;points=[[0.1,0],[0.2,0],[0.3,0],[0.4,0],[0.5,0],[0.6,0],[0.7,0],[0.8,0],[0.9,0],[0,0.1],[0,0.3],[0,0.5],[0,0.7],[0,0.9],[0.1,1],[0.2,1],[0.3,1],[0.4,1],[0.5,1],[0.6,1],[0.7,1],[0.8,1],[0.9,1],[1,0.1],[1,0.3],[1,0.5],[1,0.7],[1,0.9]];fontColor=#000000;fontStyle=0" vertex="1" parent="1">
          <mxGeometry x="-10" y="414" width="200" height="23" as="geometry" />
        </mxCell>
        <mxCell id="suHfN4VQdeFkMvTlZ6n_-18" value="&lt;u&gt;&lt;span&gt;&lt;font&gt;adapters:ObstructiveSleepApnea&lt;/font&gt;&lt;/span&gt;&lt;/u&gt;" style="rounded=0;whiteSpace=wrap;html=1;snapToPoint=1;points=[[0.1,0],[0.2,0],[0.3,0],[0.4,0],[0.5,0],[0.6,0],[0.7,0],[0.8,0],[0.9,0],[0,0.1],[0,0.3],[0,0.5],[0,0.7],[0,0.9],[0.1,1],[0.2,1],[0.3,1],[0.4,1],[0.5,1],[0.6,1],[0.7,1],[0.8,1],[0.9,1],[1,0.1],[1,0.3],[1,0.5],[1,0.7],[1,0.9]];fontColor=#000000;fontStyle=0" vertex="1" parent="1">
          <mxGeometry x="-142.5" y="443" width="217.5" height="23" as="geometry" />
        </mxCell>
        <mxCell id="suHfN4VQdeFkMvTlZ6n_-19" value="&lt;u&gt;&lt;span&gt;&lt;font&gt;adapters:Glycemia&lt;/font&gt;&lt;/span&gt;&lt;/u&gt;" style="rounded=0;whiteSpace=wrap;html=1;snapToPoint=1;points=[[0.1,0],[0.2,0],[0.3,0],[0.4,0],[0.5,0],[0.6,0],[0.7,0],[0.8,0],[0.9,0],[0,0.1],[0,0.3],[0,0.5],[0,0.7],[0,0.9],[0.1,1],[0.2,1],[0.3,1],[0.4,1],[0.5,1],[0.6,1],[0.7,1],[0.8,1],[0.9,1],[1,0.1],[1,0.3],[1,0.5],[1,0.7],[1,0.9]];fontColor=#000000;fontStyle=0" vertex="1" parent="1">
          <mxGeometry x="-230" y="390.75" width="174" height="23" as="geometry" />
        </mxCell>
        <mxCell id="suHfN4VQdeFkMvTlZ6n_-20" value="" style="endArrow=open;html=1;fontColor=#000099;endFill=0;dashed=1;endSize=8;edgeStyle=orthogonalEdgeStyle;arcSize=0;exitX=1;exitY=0.5;exitDx=0;exitDy=0;entryX=0.5;entryY=1;entryDx=0;entryDy=0;" edge="1" parent="1" source="suHfN4VQdeFkMvTlZ6n_-19" target="S2yTtaICxEiza2klLoan-4">
          <mxGeometry width="50" height="50" relative="1" as="geometry">
            <mxPoint y="406" as="sourcePoint" />
            <mxPoint x="-24" y="120" as="targetPoint" />
          </mxGeometry>
        </mxCell>
        <mxCell id="suHfN4VQdeFkMvTlZ6n_-21" value="" style="endArrow=open;html=1;fontColor=#000099;endFill=0;dashed=1;endSize=8;edgeStyle=orthogonalEdgeStyle;arcSize=0;exitX=0;exitY=0.5;exitDx=0;exitDy=0;entryX=0.5;entryY=1;entryDx=0;entryDy=0;" edge="1" parent="1" source="suHfN4VQdeFkMvTlZ6n_-16" target="S2yTtaICxEiza2klLoan-4">
          <mxGeometry width="50" height="50" relative="1" as="geometry">
            <mxPoint x="10" y="416" as="sourcePoint" />
            <mxPoint x="-14" y="130" as="targetPoint" />
          </mxGeometry>
        </mxCell>
        <mxCell id="suHfN4VQdeFkMvTlZ6n_-22" value="" style="endArrow=open;html=1;fontColor=#000099;endFill=0;dashed=1;endSize=8;edgeStyle=orthogonalEdgeStyle;arcSize=0;exitX=0.5;exitY=0;exitDx=0;exitDy=0;entryX=0.5;entryY=1;entryDx=0;entryDy=0;" edge="1" parent="1" source="suHfN4VQdeFkMvTlZ6n_-18" target="S2yTtaICxEiza2klLoan-4">
          <mxGeometry width="50" height="50" relative="1" as="geometry">
            <mxPoint x="20" y="426" as="sourcePoint" />
            <mxPoint x="-4" y="140" as="targetPoint" />
          </mxGeometry>
        </mxCell>
      </root>
    </mxGraphModel>
  </diagram>
</mxfile>
